<mxfile host="65bd71144e">
    <diagram id="zNFyZ4YqmQJ5ln-JkC30" name="Page-1">
        <mxGraphModel dx="2304" dy="2617" grid="1" gridSize="10" guides="1" tooltips="1" connect="1" arrows="1" fold="1" page="1" pageScale="1" pageWidth="827" pageHeight="1169" math="0" shadow="0">
            <root>
                <mxCell id="0"/>
                <mxCell id="1" parent="0"/>
                <mxCell id="10" value="Board" style="swimlane;fontStyle=1;align=center;verticalAlign=top;childLayout=stackLayout;horizontal=1;startSize=26;horizontalStack=0;resizeParent=1;resizeParentMax=0;resizeLast=0;collapsible=1;marginBottom=0;" parent="1" vertex="1">
                    <mxGeometry x="1978" y="-630" width="190" height="230" as="geometry"/>
                </mxCell>
                <mxCell id="11" value="+Positions: char[ , ]&#10;+Boats: List(Boat)&#10;+Size: int&#10;-FailedHits: Tuple&lt;int, int&gt;&#10;&#10;" style="text;strokeColor=none;fillColor=none;align=left;verticalAlign=top;spacingLeft=4;spacingRight=4;overflow=hidden;rotatable=0;points=[[0,0.5],[1,0.5]];portConstraint=eastwest;" parent="10" vertex="1">
                    <mxGeometry y="26" width="190" height="74" as="geometry"/>
                </mxCell>
                <mxCell id="12" value="" style="line;strokeWidth=1;fillColor=none;align=left;verticalAlign=middle;spacingTop=-1;spacingLeft=3;spacingRight=3;rotatable=0;labelPosition=right;points=[];portConstraint=eastwest;" parent="10" vertex="1">
                    <mxGeometry y="100" width="190" height="8" as="geometry"/>
                </mxCell>
                <mxCell id="13" value="+AddBoat(Boat): void&#10;+RemoveBoat(Boat): void&#10;+BoardHitStatus(char, int): string&#10;+GetPrintableBoard(string): void&#10;-GetBoatAt(): Boat&#10;+ConvertToJson(): string&#10;+LoadFromJson(string): void" style="text;strokeColor=none;fillColor=none;align=left;verticalAlign=top;spacingLeft=4;spacingRight=4;overflow=hidden;rotatable=0;points=[[0,0.5],[1,0.5]];portConstraint=eastwest;" parent="10" vertex="1">
                    <mxGeometry y="108" width="190" height="122" as="geometry"/>
                </mxCell>
                <mxCell id="14" value="Boat" style="swimlane;fontStyle=1;align=center;verticalAlign=top;childLayout=stackLayout;horizontal=1;startSize=26;horizontalStack=0;resizeParent=1;resizeParentMax=0;resizeLast=0;collapsible=1;marginBottom=0;" parent="1" vertex="1">
                    <mxGeometry x="1320" y="-240" width="300" height="120" as="geometry"/>
                </mxCell>
                <mxCell id="15" value="+Positions: List&lt;BoatPosition&gt;" style="text;strokeColor=none;fillColor=none;align=left;verticalAlign=top;spacingLeft=4;spacingRight=4;overflow=hidden;rotatable=0;points=[[0,0.5],[1,0.5]];portConstraint=eastwest;" parent="14" vertex="1">
                    <mxGeometry y="26" width="300" height="34" as="geometry"/>
                </mxCell>
                <mxCell id="16" value="" style="line;strokeWidth=1;fillColor=none;align=left;verticalAlign=middle;spacingTop=-1;spacingLeft=3;spacingRight=3;rotatable=0;labelPosition=right;points=[];portConstraint=eastwest;" parent="14" vertex="1">
                    <mxGeometry y="60" width="300" height="8" as="geometry"/>
                </mxCell>
                <mxCell id="17" value="+IsDestroyed(): bool&#10;+ConvertToJson(): string&#10;+LoadFromJson(string): void" style="text;strokeColor=none;fillColor=none;align=left;verticalAlign=top;spacingLeft=4;spacingRight=4;overflow=hidden;rotatable=0;points=[[0,0.5],[1,0.5]];portConstraint=eastwest;" parent="14" vertex="1">
                    <mxGeometry y="68" width="300" height="52" as="geometry"/>
                </mxCell>
                <mxCell id="30" value="TelegramBot or API" style="swimlane;fontStyle=1;align=center;verticalAlign=top;childLayout=stackLayout;horizontal=1;startSize=26;horizontalStack=0;resizeParent=1;resizeParentMax=0;resizeLast=0;collapsible=1;marginBottom=0;" parent="1" vertex="1">
                    <mxGeometry x="34" y="-1232" width="160" height="34" as="geometry"/>
                </mxCell>
                <mxCell id="32" value="" style="line;strokeWidth=1;fillColor=none;align=left;verticalAlign=middle;spacingTop=-1;spacingLeft=3;spacingRight=3;rotatable=0;labelPosition=right;points=[];portConstraint=eastwest;" parent="30" vertex="1">
                    <mxGeometry y="26" width="160" height="8" as="geometry"/>
                </mxCell>
                <mxCell id="38" value="UserContainer&lt;User&gt;" style="swimlane;fontStyle=1;align=center;verticalAlign=top;childLayout=stackLayout;horizontal=1;startSize=26;horizontalStack=0;resizeParent=1;resizeParentMax=0;resizeLast=0;collapsible=1;marginBottom=0;" parent="1" vertex="1">
                    <mxGeometry x="190" y="-354" width="230" height="116" as="geometry"/>
                </mxCell>
                <mxCell id="40" value="" style="line;strokeWidth=1;fillColor=none;align=left;verticalAlign=middle;spacingTop=-1;spacingLeft=3;spacingRight=3;rotatable=0;labelPosition=right;points=[];portConstraint=eastwest;" parent="38" vertex="1">
                    <mxGeometry y="26" width="230" height="8" as="geometry"/>
                </mxCell>
                <mxCell id="41" value="+AddElement(long, string, string): User&#10;+IsRegistered(long): bool&#10;+Search(long): User" style="text;strokeColor=none;fillColor=none;align=left;verticalAlign=top;spacingLeft=4;spacingRight=4;overflow=hidden;rotatable=0;points=[[0,0.5],[1,0.5]];portConstraint=eastwest;" parent="38" vertex="1">
                    <mxGeometry y="34" width="230" height="82" as="geometry"/>
                </mxCell>
                <mxCell id="46" value="AbstractHandler&#10;" style="swimlane;fontStyle=1;align=center;verticalAlign=top;childLayout=stackLayout;horizontal=1;startSize=26;horizontalStack=0;resizeParent=1;resizeParentMax=0;resizeLast=0;collapsible=1;marginBottom=0;" parent="1" vertex="1">
                    <mxGeometry x="289" y="-1258" width="270" height="170" as="geometry"/>
                </mxCell>
                <mxCell id="47" value="+Next: IHandler" style="text;strokeColor=none;fillColor=none;align=left;verticalAlign=top;spacingLeft=4;spacingRight=4;overflow=hidden;rotatable=0;points=[[0,0.5],[1,0.5]];portConstraint=eastwest;" parent="46" vertex="1">
                    <mxGeometry y="26" width="270" height="34" as="geometry"/>
                </mxCell>
                <mxCell id="48" value="" style="line;strokeWidth=1;fillColor=none;align=left;verticalAlign=middle;spacingTop=-1;spacingLeft=3;spacingRight=3;rotatable=0;labelPosition=right;points=[];portConstraint=eastwest;" parent="46" vertex="1">
                    <mxGeometry y="60" width="270" height="8" as="geometry"/>
                </mxCell>
                <mxCell id="49" value="+ Handle(Message): void&#10;- InternalHandle(Message): string&#10;- CanHandle(Message): bool&#10;+ SetNext(IHandler): void&#10;+ GetNext(): IHandler" style="text;strokeColor=none;fillColor=none;align=left;verticalAlign=top;spacingLeft=4;spacingRight=4;overflow=hidden;rotatable=0;points=[[0,0.5],[1,0.5]];portConstraint=eastwest;" parent="46" vertex="1">
                    <mxGeometry y="68" width="270" height="102" as="geometry"/>
                </mxCell>
                <mxCell id="50" value="GameContainer&lt;Game&gt;" style="swimlane;fontStyle=1;align=center;verticalAlign=top;childLayout=stackLayout;horizontal=1;startSize=26;horizontalStack=0;resizeParent=1;resizeParentMax=0;resizeLast=0;collapsible=1;marginBottom=0;" parent="1" vertex="1">
                    <mxGeometry x="500" y="-354" width="260" height="180" as="geometry"/>
                </mxCell>
                <mxCell id="51" value="-availableBoardTypes: Dictionary&lt;string, Type&gt;&#10;+AvailableGames: List&lt;Game&gt;" style="text;strokeColor=none;fillColor=none;align=left;verticalAlign=top;spacingLeft=4;spacingRight=4;overflow=hidden;rotatable=0;points=[[0,0.5],[1,0.5]];portConstraint=eastwest;" parent="50" vertex="1">
                    <mxGeometry y="26" width="260" height="34" as="geometry"/>
                </mxCell>
                <mxCell id="52" value="" style="line;strokeWidth=1;fillColor=none;align=left;verticalAlign=middle;spacingTop=-1;spacingLeft=3;spacingRight=3;rotatable=0;labelPosition=right;points=[];portConstraint=eastwest;" parent="50" vertex="1">
                    <mxGeometry y="60" width="260" height="8" as="geometry"/>
                </mxCell>
                <mxCell id="53" value="+GetAvailableBoardTypes(): List&lt;string&gt;&#10;+GetBoardTypeByTag(string): Type&#10;+AddAvailableBoardType(string, Type): void&#10;+RemoveElement(string): void&#10;+AddElement(string, bool, string): Game&#10;+IsRegistered(string): bool&#10;+Search(string): User" style="text;strokeColor=none;fillColor=none;align=left;verticalAlign=top;spacingLeft=4;spacingRight=4;overflow=hidden;rotatable=0;points=[[0,0.5],[1,0.5]];portConstraint=eastwest;" parent="50" vertex="1">
                    <mxGeometry y="68" width="260" height="112" as="geometry"/>
                </mxCell>
                <mxCell id="54" value="MatchHandler" style="swimlane;fontStyle=1;align=center;verticalAlign=top;childLayout=stackLayout;horizontal=1;startSize=26;horizontalStack=0;resizeParent=1;resizeParentMax=0;resizeLast=0;collapsible=1;marginBottom=0;" parent="1" vertex="1">
                    <mxGeometry x="430" y="-958" width="310" height="110" as="geometry"/>
                </mxCell>
                <mxCell id="55" value="- userContainer: Singleton&lt;UserContainer&gt;.Instance&#10;- gameContainer: Singleton&lt;GameContainer&gt;.Instance" style="text;strokeColor=none;fillColor=none;align=left;verticalAlign=top;spacingLeft=4;spacingRight=4;overflow=hidden;rotatable=0;points=[[0,0.5],[1,0.5]];portConstraint=eastwest;" parent="54" vertex="1">
                    <mxGeometry y="26" width="310" height="34" as="geometry"/>
                </mxCell>
                <mxCell id="56" value="" style="line;strokeWidth=1;fillColor=none;align=left;verticalAlign=middle;spacingTop=-1;spacingLeft=3;spacingRight=3;rotatable=0;labelPosition=right;points=[];portConstraint=eastwest;" parent="54" vertex="1">
                    <mxGeometry y="60" width="310" height="8" as="geometry"/>
                </mxCell>
                <mxCell id="57" value="+InternalHandle(Message): IHandler&#10;+CanHandle(Message): string" style="text;strokeColor=none;fillColor=none;align=left;verticalAlign=top;spacingLeft=4;spacingRight=4;overflow=hidden;rotatable=0;points=[[0,0.5],[1,0.5]];portConstraint=eastwest;" parent="54" vertex="1">
                    <mxGeometry y="68" width="310" height="42" as="geometry"/>
                </mxCell>
                <mxCell id="62" value="TutorialHandler" style="swimlane;fontStyle=1;align=center;verticalAlign=top;childLayout=stackLayout;horizontal=1;startSize=26;horizontalStack=0;resizeParent=1;resizeParentMax=0;resizeLast=0;collapsible=1;marginBottom=0;" parent="1" vertex="1">
                    <mxGeometry x="1060" y="-958" width="250" height="80" as="geometry"/>
                </mxCell>
                <mxCell id="64" value="" style="line;strokeWidth=1;fillColor=none;align=left;verticalAlign=middle;spacingTop=-1;spacingLeft=3;spacingRight=3;rotatable=0;labelPosition=right;points=[];portConstraint=eastwest;" parent="62" vertex="1">
                    <mxGeometry y="26" width="250" height="8" as="geometry"/>
                </mxCell>
                <mxCell id="65" value="+ InternalHandle(Message): IHandler&#10;+ CanHandle(Message): string" style="text;strokeColor=none;fillColor=none;align=left;verticalAlign=top;spacingLeft=4;spacingRight=4;overflow=hidden;rotatable=0;points=[[0,0.5],[1,0.5]];portConstraint=eastwest;" parent="62" vertex="1">
                    <mxGeometry y="34" width="250" height="46" as="geometry"/>
                </mxCell>
                <mxCell id="66" value="HelpHandler" style="swimlane;fontStyle=1;align=center;verticalAlign=top;childLayout=stackLayout;horizontal=1;startSize=26;horizontalStack=0;resizeParent=1;resizeParentMax=0;resizeLast=0;collapsible=1;marginBottom=0;" parent="1" vertex="1">
                    <mxGeometry x="159" y="-958" width="250" height="110" as="geometry"/>
                </mxCell>
                <mxCell id="68" value="" style="line;strokeWidth=1;fillColor=none;align=left;verticalAlign=middle;spacingTop=-1;spacingLeft=3;spacingRight=3;rotatable=0;labelPosition=right;points=[];portConstraint=eastwest;" parent="66" vertex="1">
                    <mxGeometry y="26" width="250" height="8" as="geometry"/>
                </mxCell>
                <mxCell id="69" value="+InternalHandle(Message): IHandler&#10;+CanHandle(Message): string" style="text;strokeColor=none;fillColor=none;align=left;verticalAlign=top;spacingLeft=4;spacingRight=4;overflow=hidden;rotatable=0;points=[[0,0.5],[1,0.5]];portConstraint=eastwest;" parent="66" vertex="1">
                    <mxGeometry y="34" width="250" height="76" as="geometry"/>
                </mxCell>
                <mxCell id="71" value="StatsHandler" style="swimlane;fontStyle=1;align=center;verticalAlign=top;childLayout=stackLayout;horizontal=1;startSize=26;horizontalStack=0;resizeParent=1;resizeParentMax=0;resizeLast=0;collapsible=1;marginBottom=0;" parent="1" vertex="1">
                    <mxGeometry x="-150" y="-958" width="290" height="110" as="geometry"/>
                </mxCell>
                <mxCell id="72" value="- userContainer: Singleton&lt;UserContainer&gt;.Instance" style="text;strokeColor=none;fillColor=none;align=left;verticalAlign=top;spacingLeft=4;spacingRight=4;overflow=hidden;rotatable=0;points=[[0,0.5],[1,0.5]];portConstraint=eastwest;" parent="71" vertex="1">
                    <mxGeometry y="26" width="290" height="34" as="geometry"/>
                </mxCell>
                <mxCell id="73" value="" style="line;strokeWidth=1;fillColor=none;align=left;verticalAlign=middle;spacingTop=-1;spacingLeft=3;spacingRight=3;rotatable=0;labelPosition=right;points=[];portConstraint=eastwest;" parent="71" vertex="1">
                    <mxGeometry y="60" width="290" height="8" as="geometry"/>
                </mxCell>
                <mxCell id="74" value="+InternalHandle(Message): IHandler&#10;+CanHandle(Message): string" style="text;strokeColor=none;fillColor=none;align=left;verticalAlign=top;spacingLeft=4;spacingRight=4;overflow=hidden;rotatable=0;points=[[0,0.5],[1,0.5]];portConstraint=eastwest;" parent="71" vertex="1">
                    <mxGeometry y="68" width="290" height="42" as="geometry"/>
                </mxCell>
                <mxCell id="77" value="UserStatus: enum" style="swimlane;fontStyle=1;align=center;verticalAlign=top;childLayout=stackLayout;horizontal=1;startSize=26;horizontalStack=0;resizeParent=1;resizeParentMax=0;resizeLast=0;collapsible=1;marginBottom=0;" parent="1" vertex="1">
                    <mxGeometry x="-590" y="-379" width="240" height="88" as="geometry"/>
                </mxCell>
                <mxCell id="78" value="LOBBY,&#10;PLAYING,&#10;WAITINGFORSECONDPLAYER" style="text;strokeColor=none;fillColor=none;align=left;verticalAlign=top;spacingLeft=4;spacingRight=4;overflow=hidden;rotatable=0;points=[[0,0.5],[1,0.5]];portConstraint=eastwest;" parent="77" vertex="1">
                    <mxGeometry y="26" width="240" height="54" as="geometry"/>
                </mxCell>
                <mxCell id="79" value="" style="line;strokeWidth=1;fillColor=none;align=left;verticalAlign=middle;spacingTop=-1;spacingLeft=3;spacingRight=3;rotatable=0;labelPosition=right;points=[];portConstraint=eastwest;" parent="77" vertex="1">
                    <mxGeometry y="80" width="240" height="8" as="geometry"/>
                </mxCell>
                <mxCell id="42" value="IHandler" style="swimlane;fontStyle=1;align=center;verticalAlign=top;childLayout=stackLayout;horizontal=1;startSize=26;horizontalStack=0;resizeParent=1;resizeParentMax=0;resizeLast=0;collapsible=1;marginBottom=0;" parent="1" vertex="1">
                    <mxGeometry x="319" y="-1440" width="210" height="120" as="geometry"/>
                </mxCell>
                <mxCell id="43" value="+Next: IHandler&#10;" style="text;strokeColor=none;fillColor=none;align=left;verticalAlign=top;spacingLeft=4;spacingRight=4;overflow=hidden;rotatable=0;points=[[0,0.5],[1,0.5]];portConstraint=eastwest;" parent="42" vertex="1">
                    <mxGeometry y="26" width="210" height="24" as="geometry"/>
                </mxCell>
                <mxCell id="44" value="" style="line;strokeWidth=1;fillColor=none;align=left;verticalAlign=middle;spacingTop=-1;spacingLeft=3;spacingRight=3;rotatable=0;labelPosition=right;points=[];portConstraint=eastwest;" parent="42" vertex="1">
                    <mxGeometry y="50" width="210" height="8" as="geometry"/>
                </mxCell>
                <mxCell id="45" value="+Handle(Message): string&#10;+SetNext(IHandler): IHandler&#10;+GetNext(): IHandler" style="text;strokeColor=none;fillColor=none;align=left;verticalAlign=top;spacingLeft=4;spacingRight=4;overflow=hidden;rotatable=0;points=[[0,0.5],[1,0.5]];portConstraint=eastwest;" parent="42" vertex="1">
                    <mxGeometry y="58" width="210" height="62" as="geometry"/>
                </mxCell>
                <mxCell id="84" value="FriendsHandler" style="swimlane;fontStyle=1;align=center;verticalAlign=top;childLayout=stackLayout;horizontal=1;startSize=26;horizontalStack=0;resizeParent=1;resizeParentMax=0;resizeLast=0;collapsible=1;marginBottom=0;" parent="1" vertex="1">
                    <mxGeometry x="-470" y="-958" width="300" height="110" as="geometry"/>
                </mxCell>
                <mxCell id="85" value="- userContainer: Singleton&lt;UserContainer&gt;.Instance" style="text;strokeColor=none;fillColor=none;align=left;verticalAlign=top;spacingLeft=4;spacingRight=4;overflow=hidden;rotatable=0;points=[[0,0.5],[1,0.5]];portConstraint=eastwest;" parent="84" vertex="1">
                    <mxGeometry y="26" width="300" height="34" as="geometry"/>
                </mxCell>
                <mxCell id="86" value="" style="line;strokeWidth=1;fillColor=none;align=left;verticalAlign=middle;spacingTop=-1;spacingLeft=3;spacingRight=3;rotatable=0;labelPosition=right;points=[];portConstraint=eastwest;" parent="84" vertex="1">
                    <mxGeometry y="60" width="300" height="8" as="geometry"/>
                </mxCell>
                <mxCell id="87" value="+InternalHandle(Message): IHandler&#10;+CanHandle(Message): string" style="text;strokeColor=none;fillColor=none;align=left;verticalAlign=top;spacingLeft=4;spacingRight=4;overflow=hidden;rotatable=0;points=[[0,0.5],[1,0.5]];portConstraint=eastwest;" parent="84" vertex="1">
                    <mxGeometry y="68" width="300" height="42" as="geometry"/>
                </mxCell>
                <mxCell id="101" value="LargeBoard" style="swimlane;fontStyle=1;align=center;verticalAlign=top;childLayout=stackLayout;horizontal=1;startSize=26;horizontalStack=0;resizeParent=1;resizeParentMax=0;resizeLast=0;collapsible=1;marginBottom=0;" parent="1" vertex="1">
                    <mxGeometry x="2188" y="-306" width="180" height="90" as="geometry"/>
                </mxCell>
                <mxCell id="103" value="" style="line;strokeWidth=1;fillColor=none;align=left;verticalAlign=middle;spacingTop=-1;spacingLeft=3;spacingRight=3;rotatable=0;labelPosition=right;points=[];portConstraint=eastwest;" parent="101" vertex="1">
                    <mxGeometry y="26" width="180" height="8" as="geometry"/>
                </mxCell>
                <mxCell id="104" value="+BoardTypeName(): string&#10;+ConvertToJson(): string&#10;+LoadFromJson(string): void" style="text;strokeColor=none;fillColor=none;align=left;verticalAlign=top;spacingLeft=4;spacingRight=4;overflow=hidden;rotatable=0;points=[[0,0.5],[1,0.5]];portConstraint=eastwest;" parent="101" vertex="1">
                    <mxGeometry y="34" width="180" height="56" as="geometry"/>
                </mxCell>
                <mxCell id="106" value="AircraftCarrier" style="swimlane;fontStyle=1;align=center;verticalAlign=top;childLayout=stackLayout;horizontal=1;startSize=26;horizontalStack=0;resizeParent=1;resizeParentMax=0;resizeLast=0;collapsible=1;marginBottom=0;" parent="1" vertex="1">
                    <mxGeometry x="1010" y="16" width="300" height="34" as="geometry"/>
                </mxCell>
                <mxCell id="108" value="" style="line;strokeWidth=1;fillColor=none;align=left;verticalAlign=middle;spacingTop=-1;spacingLeft=3;spacingRight=3;rotatable=0;labelPosition=right;points=[];portConstraint=eastwest;" parent="106" vertex="1">
                    <mxGeometry y="26" width="300" height="8" as="geometry"/>
                </mxCell>
                <mxCell id="110" value="Vessel" style="swimlane;fontStyle=1;align=center;verticalAlign=top;childLayout=stackLayout;horizontal=1;startSize=26;horizontalStack=0;resizeParent=1;resizeParentMax=0;resizeLast=0;collapsible=1;marginBottom=0;" parent="1" vertex="1">
                    <mxGeometry x="1340" y="16" width="300" height="34" as="geometry"/>
                </mxCell>
                <mxCell id="112" value="" style="line;strokeWidth=1;fillColor=none;align=left;verticalAlign=middle;spacingTop=-1;spacingLeft=3;spacingRight=3;rotatable=0;labelPosition=right;points=[];portConstraint=eastwest;" parent="110" vertex="1">
                    <mxGeometry y="26" width="300" height="8" as="geometry"/>
                </mxCell>
                <mxCell id="114" value="Submarine" style="swimlane;fontStyle=1;align=center;verticalAlign=top;childLayout=stackLayout;horizontal=1;startSize=26;horizontalStack=0;resizeParent=1;resizeParentMax=0;resizeLast=0;collapsible=1;marginBottom=0;" parent="1" vertex="1">
                    <mxGeometry x="1690" y="16" width="300" height="34" as="geometry"/>
                </mxCell>
                <mxCell id="116" value="" style="line;strokeWidth=1;fillColor=none;align=left;verticalAlign=middle;spacingTop=-1;spacingLeft=3;spacingRight=3;rotatable=0;labelPosition=right;points=[];portConstraint=eastwest;" parent="114" vertex="1">
                    <mxGeometry y="26" width="300" height="8" as="geometry"/>
                </mxCell>
                <mxCell id="118" value="Criuse" style="swimlane;fontStyle=1;align=center;verticalAlign=top;childLayout=stackLayout;horizontal=1;startSize=26;horizontalStack=0;resizeParent=1;resizeParentMax=0;resizeLast=0;collapsible=1;marginBottom=0;" parent="1" vertex="1">
                    <mxGeometry x="2020" y="16" width="300" height="34" as="geometry"/>
                </mxCell>
                <mxCell id="120" value="" style="line;strokeWidth=1;fillColor=none;align=left;verticalAlign=middle;spacingTop=-1;spacingLeft=3;spacingRight=3;rotatable=0;labelPosition=right;points=[];portConstraint=eastwest;" parent="118" vertex="1">
                    <mxGeometry y="26" width="300" height="8" as="geometry"/>
                </mxCell>
                <mxCell id="122" value="Sailboat" style="swimlane;fontStyle=1;align=center;verticalAlign=top;childLayout=stackLayout;horizontal=1;startSize=26;horizontalStack=0;resizeParent=1;resizeParentMax=0;resizeLast=0;collapsible=1;marginBottom=0;" parent="1" vertex="1">
                    <mxGeometry x="690" y="16" width="300" height="34" as="geometry"/>
                </mxCell>
                <mxCell id="124" value="" style="line;strokeWidth=1;fillColor=none;align=left;verticalAlign=middle;spacingTop=-1;spacingLeft=3;spacingRight=3;rotatable=0;labelPosition=right;points=[];portConstraint=eastwest;" parent="122" vertex="1">
                    <mxGeometry y="26" width="300" height="8" as="geometry"/>
                </mxCell>
                <mxCell id="190" value="Implements" style="endArrow=block;dashed=1;endFill=0;endSize=12;html=1;entryX=0.511;entryY=1.139;entryDx=0;entryDy=0;entryPerimeter=0;exitX=0.5;exitY=0;exitDx=0;exitDy=0;" parent="1" source="46" target="45" edge="1">
                    <mxGeometry width="160" relative="1" as="geometry">
                        <mxPoint x="24" y="-1008" as="sourcePoint"/>
                        <mxPoint x="184" y="-1008" as="targetPoint"/>
                    </mxGeometry>
                </mxCell>
                <mxCell id="191" value="Hereda" style="endArrow=block;endSize=16;endFill=0;html=1;entryX=0.999;entryY=0.7;entryDx=0;entryDy=0;exitX=0.5;exitY=0;exitDx=0;exitDy=0;entryPerimeter=0;" parent="1" source="62" target="49" edge="1">
                    <mxGeometry width="160" relative="1" as="geometry">
                        <mxPoint x="94" y="-998" as="sourcePoint"/>
                        <mxPoint x="254" y="-998" as="targetPoint"/>
                    </mxGeometry>
                </mxCell>
                <mxCell id="197" value="Hereda" style="endArrow=block;endSize=16;endFill=0;html=1;entryX=-0.009;entryY=0.939;entryDx=0;entryDy=0;exitX=0.5;exitY=0;exitDx=0;exitDy=0;entryPerimeter=0;" parent="1" source="273" target="13" edge="1">
                    <mxGeometry width="160" relative="1" as="geometry">
                        <mxPoint x="1856.3200000000002" y="-299.90999999999985" as="sourcePoint"/>
                        <mxPoint x="1979.3300000000004" y="-397.19399999999996" as="targetPoint"/>
                    </mxGeometry>
                </mxCell>
                <mxCell id="198" value="Hereda" style="endArrow=block;endSize=16;endFill=0;html=1;entryX=0.504;entryY=1.036;entryDx=0;entryDy=0;exitX=0.465;exitY=0;exitDx=0;exitDy=0;entryPerimeter=0;exitPerimeter=0;" parent="1" source="267" target="13" edge="1">
                    <mxGeometry width="160" relative="1" as="geometry">
                        <mxPoint x="2068" y="-306" as="sourcePoint"/>
                        <mxPoint x="2069.26" y="-450.00400000000025" as="targetPoint"/>
                    </mxGeometry>
                </mxCell>
                <mxCell id="199" value="Hereda" style="endArrow=block;endSize=16;endFill=0;html=1;entryX=1;entryY=1.01;entryDx=0;entryDy=0;exitX=0.5;exitY=0;exitDx=0;exitDy=0;entryPerimeter=0;" parent="1" source="101" target="13" edge="1">
                    <mxGeometry width="160" relative="1" as="geometry">
                        <mxPoint x="1878" y="-286" as="sourcePoint"/>
                        <mxPoint x="1999.2600000000002" y="-427.6540000000002" as="targetPoint"/>
                    </mxGeometry>
                </mxCell>
                <mxCell id="200" value="Hereda" style="endArrow=block;endSize=16;endFill=0;html=1;entryX=0;entryY=0.5;entryDx=0;entryDy=0;exitX=0.5;exitY=0;exitDx=0;exitDy=0;" parent="1" source="122" target="17" edge="1">
                    <mxGeometry width="160" relative="1" as="geometry">
                        <mxPoint x="830" y="10" as="sourcePoint"/>
                        <mxPoint x="1080.7199999999998" y="-179.99800000000016" as="targetPoint"/>
                    </mxGeometry>
                </mxCell>
                <mxCell id="201" value="Hereda" style="endArrow=block;endSize=16;endFill=0;html=1;entryX=0.167;entryY=1;entryDx=0;entryDy=0;exitX=0.5;exitY=0;exitDx=0;exitDy=0;entryPerimeter=0;" parent="1" source="106" target="17" edge="1">
                    <mxGeometry width="160" relative="1" as="geometry">
                        <mxPoint x="850" y="26" as="sourcePoint"/>
                        <mxPoint x="1330" y="-136" as="targetPoint"/>
                    </mxGeometry>
                </mxCell>
                <mxCell id="203" value="Hereda" style="endArrow=block;endSize=16;endFill=0;html=1;entryX=0.789;entryY=1.083;entryDx=0;entryDy=0;exitX=0.5;exitY=0;exitDx=0;exitDy=0;entryPerimeter=0;" parent="1" source="114" target="17" edge="1">
                    <mxGeometry width="160" relative="1" as="geometry">
                        <mxPoint x="870" y="46" as="sourcePoint"/>
                        <mxPoint x="1350" y="-116" as="targetPoint"/>
                    </mxGeometry>
                </mxCell>
                <mxCell id="204" value="Hereda" style="endArrow=block;endSize=16;endFill=0;html=1;entryX=1;entryY=0.5;entryDx=0;entryDy=0;exitX=0.5;exitY=0;exitDx=0;exitDy=0;" parent="1" source="118" target="17" edge="1">
                    <mxGeometry width="160" relative="1" as="geometry">
                        <mxPoint x="880" y="56" as="sourcePoint"/>
                        <mxPoint x="1360" y="-106" as="targetPoint"/>
                    </mxGeometry>
                </mxCell>
                <mxCell id="207" value="User" style="swimlane;fontStyle=1;align=center;verticalAlign=top;childLayout=stackLayout;horizontal=1;startSize=26;horizontalStack=0;resizeParent=1;resizeParentMax=0;resizeLast=0;collapsible=1;marginBottom=0;" parent="1" vertex="1">
                    <mxGeometry x="-250" y="-404" width="220" height="250" as="geometry"/>
                </mxCell>
                <mxCell id="208" value="+ID: long&#10;+FullName: string&#10;+NickName: string&#10;+Friends: Collection&lt;User&gt;&#10;+UserStatus: UserStatus&#10;+Wins: int&#10;+Losses: int&#10;+Ties: int&#10;+TotalHits: int&#10;+TotalMisses: int&#10;" style="text;strokeColor=none;fillColor=none;align=left;verticalAlign=top;spacingLeft=4;spacingRight=4;overflow=hidden;rotatable=0;points=[[0,0.5],[1,0.5]];portConstraint=eastwest;" parent="207" vertex="1">
                    <mxGeometry y="26" width="220" height="144" as="geometry"/>
                </mxCell>
                <mxCell id="209" value="" style="line;strokeWidth=1;fillColor=none;align=left;verticalAlign=middle;spacingTop=-1;spacingLeft=3;spacingRight=3;rotatable=0;labelPosition=right;points=[];portConstraint=eastwest;" parent="207" vertex="1">
                    <mxGeometry y="170" width="220" height="8" as="geometry"/>
                </mxCell>
                <mxCell id="210" value="+AddFriend(User): void&#10;+RemoveFriend(User): void&#10;+GetHitPercentage(): double&#10;+GetMissPercentage(): double" style="text;strokeColor=none;fillColor=none;align=left;verticalAlign=top;spacingLeft=4;spacingRight=4;overflow=hidden;rotatable=0;points=[[0,0.5],[1,0.5]];portConstraint=eastwest;" parent="207" vertex="1">
                    <mxGeometry y="178" width="220" height="72" as="geometry"/>
                </mxCell>
                <mxCell id="213" value="1" style="endArrow=open;html=1;endSize=12;startArrow=diamondThin;startSize=14;startFill=0;edgeStyle=orthogonalEdgeStyle;align=left;verticalAlign=bottom;entryX=1;entryY=0.5;entryDx=0;entryDy=0;exitX=0;exitY=0.5;exitDx=0;exitDy=0;" parent="1" source="41" target="208" edge="1">
                    <mxGeometry x="-0.8582" y="-10" relative="1" as="geometry">
                        <mxPoint x="210" y="-264" as="sourcePoint"/>
                        <mxPoint x="220" y="-264" as="targetPoint"/>
                        <mxPoint as="offset"/>
                    </mxGeometry>
                </mxCell>
                <mxCell id="214" value="0..*" style="edgeLabel;html=1;align=center;verticalAlign=middle;resizable=0;points=[];" parent="213" connectable="0" vertex="1">
                    <mxGeometry x="0.9253" relative="1" as="geometry">
                        <mxPoint x="18" y="-22" as="offset"/>
                    </mxGeometry>
                </mxCell>
                <mxCell id="215" value="1" style="endArrow=open;html=1;endSize=12;startArrow=diamondThin;startSize=14;startFill=0;edgeStyle=orthogonalEdgeStyle;align=left;verticalAlign=bottom;exitX=1;exitY=0.5;exitDx=0;exitDy=0;entryX=0;entryY=0.5;entryDx=0;entryDy=0;" parent="1" source="51" target="221" edge="1">
                    <mxGeometry x="-0.8582" y="-10" relative="1" as="geometry">
                        <mxPoint x="1090" y="-278" as="sourcePoint"/>
                        <mxPoint x="870" y="-304" as="targetPoint"/>
                        <mxPoint as="offset"/>
                    </mxGeometry>
                </mxCell>
                <mxCell id="216" value="0..*" style="edgeLabel;html=1;align=center;verticalAlign=middle;resizable=0;points=[];" parent="215" connectable="0" vertex="1">
                    <mxGeometry x="0.9253" relative="1" as="geometry">
                        <mxPoint x="-23" y="-24" as="offset"/>
                    </mxGeometry>
                </mxCell>
                <mxCell id="218" value="Game" style="swimlane;fontStyle=1;align=center;verticalAlign=top;childLayout=stackLayout;horizontal=1;startSize=26;horizontalStack=0;resizeParent=1;resizeParentMax=0;resizeLast=0;collapsible=1;marginBottom=0;" parent="1" vertex="1">
                    <mxGeometry x="910" y="-570" width="310" height="300" as="geometry"/>
                </mxCell>
                <mxCell id="219" value="+IsPublic: bool&#10;+GameStatus: GameStatus&#10;+Identifier: string&#10;+BoardType: Type&#10;-Players: Dictionary&lt;User, Tuple&lt;Board, Board&gt;&gt;&#10;-Turn: User&#10;-BattleShipSettings: BattleShipSettings&#10;-TurnsTimer: Timer" style="text;strokeColor=none;fillColor=none;align=left;verticalAlign=top;spacingLeft=4;spacingRight=4;overflow=hidden;rotatable=0;points=[[0,0.5],[1,0.5]];portConstraint=eastwest;" parent="218" vertex="1">
                    <mxGeometry y="26" width="310" height="124" as="geometry"/>
                </mxCell>
                <mxCell id="220" value="" style="line;strokeWidth=1;fillColor=none;align=left;verticalAlign=middle;spacingTop=-1;spacingLeft=3;spacingRight=3;rotatable=0;labelPosition=right;points=[];portConstraint=eastwest;" parent="218" vertex="1">
                    <mxGeometry y="150" width="310" height="8" as="geometry"/>
                </mxCell>
                <mxCell id="221" value="+AddPlayer(User): void&#10;+RemovePlayer(User): void&#10;-StartGame(): void&#10;-EndGame(): void&#10;+SwitchTurns(): void&#10;+Win(User): void&#10;+StartTimer(): void&#10;+StopTimer(): void&#10;-OnTimerEnd(object): void" style="text;strokeColor=none;fillColor=none;align=left;verticalAlign=top;spacingLeft=4;spacingRight=4;overflow=hidden;rotatable=0;points=[[0,0.5],[1,0.5]];portConstraint=eastwest;" parent="218" vertex="1">
                    <mxGeometry y="158" width="310" height="142" as="geometry"/>
                </mxCell>
                <mxCell id="222" value="Use" style="endArrow=open;endSize=12;dashed=1;html=1;exitX=-0.024;exitY=0.07;exitDx=0;exitDy=0;entryX=0.5;entryY=0;entryDx=0;entryDy=0;exitPerimeter=0;" parent="1" source="13" target="14" edge="1">
                    <mxGeometry width="160" relative="1" as="geometry">
                        <mxPoint x="1470" y="-350" as="sourcePoint"/>
                        <mxPoint x="1850" y="-410" as="targetPoint"/>
                        <Array as="points">
                            <mxPoint x="1470" y="-516"/>
                        </Array>
                    </mxGeometry>
                </mxCell>
                <mxCell id="223" value="Use" style="endArrow=open;endSize=12;dashed=1;html=1;exitX=1.016;exitY=0.084;exitDx=0;exitDy=0;entryX=0;entryY=0.5;entryDx=0;entryDy=0;exitPerimeter=0;" parent="1" source="218" target="11" edge="1">
                    <mxGeometry width="160" relative="1" as="geometry">
                        <mxPoint x="1290" y="-410" as="sourcePoint"/>
                        <mxPoint x="1450" y="-410" as="targetPoint"/>
                        <Array as="points">
                            <mxPoint x="1360" y="-460"/>
                            <mxPoint x="1360" y="-582"/>
                        </Array>
                    </mxGeometry>
                </mxCell>
                <mxCell id="224" value="Use" style="endArrow=open;endSize=12;dashed=1;html=1;exitX=0.5;exitY=0;exitDx=0;exitDy=0;entryX=0.5;entryY=0;entryDx=0;entryDy=0;" parent="1" source="218" target="207" edge="1">
                    <mxGeometry width="160" relative="1" as="geometry">
                        <mxPoint x="920" y="-620" as="sourcePoint"/>
                        <mxPoint x="1080" y="-620" as="targetPoint"/>
                        <Array as="points">
                            <mxPoint x="1065" y="-620"/>
                            <mxPoint x="-140" y="-620"/>
                        </Array>
                    </mxGeometry>
                </mxCell>
                <mxCell id="225" value="Use" style="endArrow=open;endSize=12;dashed=1;html=1;exitX=0.507;exitY=0.999;exitDx=0;exitDy=0;exitPerimeter=0;entryX=0.5;entryY=0;entryDx=0;entryDy=0;" parent="1" source="221" edge="1">
                    <mxGeometry width="160" relative="1" as="geometry">
                        <mxPoint x="890" y="-250" as="sourcePoint"/>
                        <mxPoint x="1065" y="-214" as="targetPoint"/>
                    </mxGeometry>
                </mxCell>
                <mxCell id="226" value="Use" style="endArrow=open;endSize=12;dashed=1;html=1;entryX=1;entryY=0.5;entryDx=0;entryDy=0;exitX=0;exitY=0.5;exitDx=0;exitDy=0;" parent="1" source="47" target="30" edge="1">
                    <mxGeometry width="160" relative="1" as="geometry">
                        <mxPoint x="104" y="-1458" as="sourcePoint"/>
                        <mxPoint x="264" y="-1458" as="targetPoint"/>
                    </mxGeometry>
                </mxCell>
                <mxCell id="229" value="1" style="endArrow=open;html=1;endSize=12;startArrow=diamondThin;startSize=14;startFill=0;edgeStyle=orthogonalEdgeStyle;align=left;verticalAlign=bottom;exitX=1.016;exitY=0.289;exitDx=0;exitDy=0;exitPerimeter=0;" parent="1" edge="1">
                    <mxGeometry x="-0.8582" y="-10" relative="1" as="geometry">
                        <mxPoint x="1231.96" y="-370.962" as="sourcePoint"/>
                        <mxPoint x="1977" y="-530" as="targetPoint"/>
                        <mxPoint as="offset"/>
                        <Array as="points">
                            <mxPoint x="1232" y="-349"/>
                            <mxPoint x="1437" y="-349"/>
                            <mxPoint x="1437" y="-540"/>
                            <mxPoint x="1927" y="-540"/>
                            <mxPoint x="1927" y="-530"/>
                        </Array>
                    </mxGeometry>
                </mxCell>
                <mxCell id="230" value="0..*" style="edgeLabel;html=1;align=center;verticalAlign=middle;resizable=0;points=[];" parent="229" connectable="0" vertex="1">
                    <mxGeometry x="0.9253" relative="1" as="geometry">
                        <mxPoint x="-23" y="-24" as="offset"/>
                    </mxGeometry>
                </mxCell>
                <mxCell id="231" value="1" style="endArrow=open;html=1;endSize=12;startArrow=diamondThin;startSize=14;startFill=0;edgeStyle=orthogonalEdgeStyle;align=left;verticalAlign=bottom;entryX=0.75;entryY=0;entryDx=0;entryDy=0;" parent="1" target="14" edge="1">
                    <mxGeometry x="-0.8582" y="-10" relative="1" as="geometry">
                        <mxPoint x="1960" y="-470" as="sourcePoint"/>
                        <mxPoint x="1989.62" y="-529.6579999999999" as="targetPoint"/>
                        <mxPoint as="offset"/>
                        <Array as="points">
                            <mxPoint x="1545" y="-470"/>
                        </Array>
                    </mxGeometry>
                </mxCell>
                <mxCell id="232" value="0..*" style="edgeLabel;html=1;align=center;verticalAlign=middle;resizable=0;points=[];" parent="231" connectable="0" vertex="1">
                    <mxGeometry x="0.9253" relative="1" as="geometry">
                        <mxPoint x="-23" y="-24" as="offset"/>
                    </mxGeometry>
                </mxCell>
                <mxCell id="233" value="Use" style="endArrow=open;endSize=12;dashed=1;html=1;exitX=0;exitY=0.5;exitDx=0;exitDy=0;entryX=1;entryY=0.5;entryDx=0;entryDy=0;" parent="1" source="208" target="78" edge="1">
                    <mxGeometry width="160" relative="1" as="geometry">
                        <mxPoint x="-40" y="-230" as="sourcePoint"/>
                        <mxPoint x="120" y="-230" as="targetPoint"/>
                    </mxGeometry>
                </mxCell>
                <mxCell id="238" value="Use" style="endArrow=open;endSize=12;dashed=1;html=1;exitX=0.512;exitY=1.021;exitDx=0;exitDy=0;exitPerimeter=0;entryX=0.25;entryY=0;entryDx=0;entryDy=0;" parent="1" source="74" target="207" edge="1">
                    <mxGeometry width="160" relative="1" as="geometry">
                        <mxPoint x="570" y="1220" as="sourcePoint"/>
                        <mxPoint x="730" y="1220" as="targetPoint"/>
                        <Array as="points">
                            <mxPoint x="-2" y="-680"/>
                            <mxPoint x="-195" y="-680"/>
                        </Array>
                    </mxGeometry>
                </mxCell>
                <mxCell id="239" value="Use" style="endArrow=open;endSize=12;dashed=1;html=1;exitX=0.48;exitY=1.004;exitDx=0;exitDy=0;exitPerimeter=0;entryX=0.582;entryY=-0.013;entryDx=0;entryDy=0;entryPerimeter=0;" parent="1" source="69" target="50" edge="1">
                    <mxGeometry width="160" relative="1" as="geometry">
                        <mxPoint x="30" y="760" as="sourcePoint"/>
                        <mxPoint x="180" y="950" as="targetPoint"/>
                        <Array as="points">
                            <mxPoint x="279" y="-720"/>
                            <mxPoint x="638" y="-720"/>
                        </Array>
                    </mxGeometry>
                </mxCell>
                <mxCell id="240" value="Use" style="endArrow=open;endSize=12;dashed=1;html=1;exitX=0.379;exitY=0.985;exitDx=0;exitDy=0;exitPerimeter=0;entryX=0.75;entryY=0;entryDx=0;entryDy=0;" parent="1" source="298" target="218" edge="1">
                    <mxGeometry width="160" relative="1" as="geometry">
                        <mxPoint x="881" y="-784.0219999999999" as="sourcePoint"/>
                        <mxPoint x="1110" y="-1290" as="targetPoint"/>
                        <Array as="points">
                            <mxPoint x="815" y="-640"/>
                            <mxPoint x="1143" y="-640"/>
                        </Array>
                    </mxGeometry>
                </mxCell>
                <mxCell id="241" value="Use" style="endArrow=open;endSize=12;dashed=1;html=1;entryX=0;entryY=0;entryDx=0;entryDy=0;exitX=0.25;exitY=1.071;exitDx=0;exitDy=0;exitPerimeter=0;" parent="1" source="87" target="207" edge="1">
                    <mxGeometry width="160" relative="1" as="geometry">
                        <mxPoint x="-330" y="-800" as="sourcePoint"/>
                        <mxPoint x="-320" y="-1250" as="targetPoint"/>
                        <Array as="points">
                            <mxPoint x="-330" y="-640"/>
                            <mxPoint x="-330" y="-404"/>
                        </Array>
                    </mxGeometry>
                </mxCell>
                <mxCell id="243" value="Use" style="endArrow=open;endSize=12;dashed=1;html=1;exitX=0.95;exitY=1.061;exitDx=0;exitDy=0;exitPerimeter=0;entryX=0.75;entryY=0;entryDx=0;entryDy=0;" parent="1" source="57" target="50" edge="1">
                    <mxGeometry width="160" relative="1" as="geometry">
                        <mxPoint x="580" y="-777.5920000000001" as="sourcePoint"/>
                        <mxPoint x="939.0399999999995" y="-345.9500000000003" as="targetPoint"/>
                        <Array as="points">
                            <mxPoint x="675" y="-720"/>
                        </Array>
                    </mxGeometry>
                </mxCell>
                <mxCell id="245" value="Hereda" style="endArrow=block;endSize=16;endFill=0;html=1;entryX=0.967;entryY=1.055;entryDx=0;entryDy=0;exitX=0.375;exitY=0.016;exitDx=0;exitDy=0;entryPerimeter=0;exitPerimeter=0;" parent="1" source="295" target="49" edge="1">
                    <mxGeometry width="160" relative="1" as="geometry">
                        <mxPoint x="885" y="-958" as="sourcePoint"/>
                        <mxPoint x="558.9999999999995" y="-1060.0000000000002" as="targetPoint"/>
                    </mxGeometry>
                </mxCell>
                <mxCell id="246" value="Hereda" style="endArrow=block;endSize=16;endFill=0;html=1;entryX=0.764;entryY=1.016;entryDx=0;entryDy=0;exitX=0.25;exitY=0;exitDx=0;exitDy=0;entryPerimeter=0;" parent="1" source="54" target="49" edge="1">
                    <mxGeometry width="160" relative="1" as="geometry">
                        <mxPoint x="1115" y="-938" as="sourcePoint"/>
                        <mxPoint x="578.7299999999996" y="-1098.6000000000001" as="targetPoint"/>
                    </mxGeometry>
                </mxCell>
                <mxCell id="247" value="Hereda" style="endArrow=block;endSize=16;endFill=0;html=1;entryX=0.212;entryY=1.007;entryDx=0;entryDy=0;entryPerimeter=0;exitX=0.75;exitY=0;exitDx=0;exitDy=0;" parent="1" source="66" target="49" edge="1">
                    <mxGeometry width="160" relative="1" as="geometry">
                        <mxPoint x="330" y="-980" as="sourcePoint"/>
                        <mxPoint x="350.27999999999975" y="-1076.3680000000002" as="targetPoint"/>
                    </mxGeometry>
                </mxCell>
                <mxCell id="248" value="Hereda" style="endArrow=block;endSize=16;endFill=0;html=1;entryX=-0.01;entryY=1.016;entryDx=0;entryDy=0;exitX=0.75;exitY=0;exitDx=0;exitDy=0;entryPerimeter=0;" parent="1" source="71" target="49" edge="1">
                    <mxGeometry width="160" relative="1" as="geometry">
                        <mxPoint x="515" y="-938" as="sourcePoint"/>
                        <mxPoint x="515.2799999999997" y="-1066.3680000000002" as="targetPoint"/>
                    </mxGeometry>
                </mxCell>
                <mxCell id="249" value="Hereda" style="endArrow=block;endSize=16;endFill=0;html=1;entryX=0;entryY=0.5;entryDx=0;entryDy=0;exitX=0.75;exitY=0;exitDx=0;exitDy=0;" parent="1" source="84" target="49" edge="1">
                    <mxGeometry width="160" relative="1" as="geometry">
                        <mxPoint x="-180" y="-960" as="sourcePoint"/>
                        <mxPoint x="240" y="-1140" as="targetPoint"/>
                    </mxGeometry>
                </mxCell>
                <mxCell id="251" value="Hereda" style="endArrow=block;endSize=16;endFill=0;html=1;entryX=0.564;entryY=1.059;entryDx=0;entryDy=0;exitX=0.5;exitY=0;exitDx=0;exitDy=0;entryPerimeter=0;" parent="1" source="110" target="17" edge="1">
                    <mxGeometry width="160" relative="1" as="geometry">
                        <mxPoint x="1470" y="48.370000000000005" as="sourcePoint"/>
                        <mxPoint x="1470.2800000000002" y="-79.99799999999993" as="targetPoint"/>
                    </mxGeometry>
                </mxCell>
                <mxCell id="252" value="RegisterHandler" style="swimlane;fontStyle=1;align=center;verticalAlign=top;childLayout=stackLayout;horizontal=1;startSize=26;horizontalStack=0;resizeParent=1;resizeParentMax=0;resizeLast=0;collapsible=1;marginBottom=0;" parent="1" vertex="1">
                    <mxGeometry x="-820" y="-958" width="300" height="110" as="geometry"/>
                </mxCell>
                <mxCell id="253" value="- userContainer: Singleton&lt;UserContainer&gt;.Instance" style="text;strokeColor=none;fillColor=none;align=left;verticalAlign=top;spacingLeft=4;spacingRight=4;overflow=hidden;rotatable=0;points=[[0,0.5],[1,0.5]];portConstraint=eastwest;" parent="252" vertex="1">
                    <mxGeometry y="26" width="300" height="34" as="geometry"/>
                </mxCell>
                <mxCell id="254" value="" style="line;strokeWidth=1;fillColor=none;align=left;verticalAlign=middle;spacingTop=-1;spacingLeft=3;spacingRight=3;rotatable=0;labelPosition=right;points=[];portConstraint=eastwest;" parent="252" vertex="1">
                    <mxGeometry y="60" width="300" height="8" as="geometry"/>
                </mxCell>
                <mxCell id="255" value="+InternalHandle(Message): IHandler&#10;+CanHandle(Message): string" style="text;strokeColor=none;fillColor=none;align=left;verticalAlign=top;spacingLeft=4;spacingRight=4;overflow=hidden;rotatable=0;points=[[0,0.5],[1,0.5]];portConstraint=eastwest;" parent="252" vertex="1">
                    <mxGeometry y="68" width="300" height="42" as="geometry"/>
                </mxCell>
                <mxCell id="256" value="Hereda" style="endArrow=block;endSize=16;endFill=0;html=1;entryX=0.002;entryY=0.18;entryDx=0;entryDy=0;exitX=0.5;exitY=0;exitDx=0;exitDy=0;entryPerimeter=0;" parent="1" source="252" target="49" edge="1">
                    <mxGeometry width="160" relative="1" as="geometry">
                        <mxPoint x="-235" y="-947.9999999999998" as="sourcePoint"/>
                        <mxPoint x="299.0000000000002" y="-1129" as="targetPoint"/>
                    </mxGeometry>
                </mxCell>
                <mxCell id="257" value="GameIdentifier" style="swimlane;fontStyle=1;align=center;verticalAlign=top;childLayout=stackLayout;horizontal=1;startSize=26;horizontalStack=0;resizeParent=1;resizeParentMax=0;resizeLast=0;collapsible=1;marginBottom=0;" parent="1" vertex="1">
                    <mxGeometry x="30" y="-762" width="220" height="120" as="geometry"/>
                </mxCell>
                <mxCell id="258" value="-random: Random&#10;-PossibleCharacters: string[ ]&#10;-ExistingIdentifiers: List&lt;string&gt;&#10;" style="text;strokeColor=none;fillColor=none;align=left;verticalAlign=top;spacingLeft=4;spacingRight=4;overflow=hidden;rotatable=0;points=[[0,0.5],[1,0.5]];portConstraint=eastwest;" parent="257" vertex="1">
                    <mxGeometry y="26" width="220" height="54" as="geometry"/>
                </mxCell>
                <mxCell id="259" value="" style="line;strokeWidth=1;fillColor=none;align=left;verticalAlign=middle;spacingTop=-1;spacingLeft=3;spacingRight=3;rotatable=0;labelPosition=right;points=[];portConstraint=eastwest;" parent="257" vertex="1">
                    <mxGeometry y="80" width="220" height="8" as="geometry"/>
                </mxCell>
                <mxCell id="260" value="+GenerateIdentifier(): string" style="text;strokeColor=none;fillColor=none;align=left;verticalAlign=top;spacingLeft=4;spacingRight=4;overflow=hidden;rotatable=0;points=[[0,0.5],[1,0.5]];portConstraint=eastwest;" parent="257" vertex="1">
                    <mxGeometry y="88" width="220" height="32" as="geometry"/>
                </mxCell>
                <mxCell id="261" value="GameStatus: enum" style="swimlane;fontStyle=1;align=center;verticalAlign=top;childLayout=stackLayout;horizontal=1;startSize=26;horizontalStack=0;resizeParent=1;resizeParentMax=0;resizeLast=0;collapsible=1;marginBottom=0;" parent="1" vertex="1">
                    <mxGeometry x="950" y="-210" width="240" height="108" as="geometry"/>
                </mxCell>
                <mxCell id="262" value="WAITING,&#10;PLACINGBOATS,&#10;PLAYING,&#10;FINISHING,&#10;FINISHED" style="text;strokeColor=none;fillColor=none;align=left;verticalAlign=top;spacingLeft=4;spacingRight=4;overflow=hidden;rotatable=0;points=[[0,0.5],[1,0.5]];portConstraint=eastwest;" parent="261" vertex="1">
                    <mxGeometry y="26" width="240" height="74" as="geometry"/>
                </mxCell>
                <mxCell id="263" value="" style="line;strokeWidth=1;fillColor=none;align=left;verticalAlign=middle;spacingTop=-1;spacingLeft=3;spacingRight=3;rotatable=0;labelPosition=right;points=[];portConstraint=eastwest;" parent="261" vertex="1">
                    <mxGeometry y="100" width="240" height="8" as="geometry"/>
                </mxCell>
                <mxCell id="264" value="BoardHitStatus: enum" style="swimlane;fontStyle=1;align=center;verticalAlign=top;childLayout=stackLayout;horizontal=1;startSize=26;horizontalStack=0;resizeParent=1;resizeParentMax=0;resizeLast=0;collapsible=1;marginBottom=0;" parent="1" vertex="1">
                    <mxGeometry x="2168" y="-800" width="240" height="118" as="geometry"/>
                </mxCell>
                <mxCell id="265" value="OutOfBoard&#10;Water&#10;WaterAgain&#10;BoatHit&#10;BoatHitAgain&#10;" style="text;strokeColor=none;fillColor=none;align=left;verticalAlign=top;spacingLeft=4;spacingRight=4;overflow=hidden;rotatable=0;points=[[0,0.5],[1,0.5]];portConstraint=eastwest;" parent="264" vertex="1">
                    <mxGeometry y="26" width="240" height="84" as="geometry"/>
                </mxCell>
                <mxCell id="266" value="" style="line;strokeWidth=1;fillColor=none;align=left;verticalAlign=middle;spacingTop=-1;spacingLeft=3;spacingRight=3;rotatable=0;labelPosition=right;points=[];portConstraint=eastwest;" parent="264" vertex="1">
                    <mxGeometry y="110" width="240" height="8" as="geometry"/>
                </mxCell>
                <mxCell id="267" value="MediumBoard" style="swimlane;fontStyle=1;align=center;verticalAlign=top;childLayout=stackLayout;horizontal=1;startSize=26;horizontalStack=0;resizeParent=1;resizeParentMax=0;resizeLast=0;collapsible=1;marginBottom=0;" parent="1" vertex="1">
                    <mxGeometry x="1990" y="-306" width="180" height="90" as="geometry"/>
                </mxCell>
                <mxCell id="268" value="" style="line;strokeWidth=1;fillColor=none;align=left;verticalAlign=middle;spacingTop=-1;spacingLeft=3;spacingRight=3;rotatable=0;labelPosition=right;points=[];portConstraint=eastwest;" parent="267" vertex="1">
                    <mxGeometry y="26" width="180" height="8" as="geometry"/>
                </mxCell>
                <mxCell id="269" value="+BoardTypeName(): string&#10;+ConvertToJson(): string&#10;+LoadFromJson(string): void" style="text;strokeColor=none;fillColor=none;align=left;verticalAlign=top;spacingLeft=4;spacingRight=4;overflow=hidden;rotatable=0;points=[[0,0.5],[1,0.5]];portConstraint=eastwest;" parent="267" vertex="1">
                    <mxGeometry y="34" width="180" height="56" as="geometry"/>
                </mxCell>
                <mxCell id="273" value="SmallBoard" style="swimlane;fontStyle=1;align=center;verticalAlign=top;childLayout=stackLayout;horizontal=1;startSize=26;horizontalStack=0;resizeParent=1;resizeParentMax=0;resizeLast=0;collapsible=1;marginBottom=0;" parent="1" vertex="1">
                    <mxGeometry x="1790" y="-306" width="180" height="90" as="geometry"/>
                </mxCell>
                <mxCell id="274" value="" style="line;strokeWidth=1;fillColor=none;align=left;verticalAlign=middle;spacingTop=-1;spacingLeft=3;spacingRight=3;rotatable=0;labelPosition=right;points=[];portConstraint=eastwest;" parent="273" vertex="1">
                    <mxGeometry y="26" width="180" height="8" as="geometry"/>
                </mxCell>
                <mxCell id="275" value="+BoardTypeName(): string&#10;+ConvertToJson(): string&#10;+LoadFromJson(string): void" style="text;strokeColor=none;fillColor=none;align=left;verticalAlign=top;spacingLeft=4;spacingRight=4;overflow=hidden;rotatable=0;points=[[0,0.5],[1,0.5]];portConstraint=eastwest;" parent="273" vertex="1">
                    <mxGeometry y="34" width="180" height="56" as="geometry"/>
                </mxCell>
                <mxCell id="280" value="BoatPosition" style="swimlane;fontStyle=1;align=center;verticalAlign=top;childLayout=stackLayout;horizontal=1;startSize=26;horizontalStack=0;resizeParent=1;resizeParentMax=0;resizeLast=0;collapsible=1;marginBottom=0;" parent="1" vertex="1">
                    <mxGeometry x="1340" y="90" width="300" height="180" as="geometry"/>
                </mxCell>
                <mxCell id="281" value="+X(): int&#10;+Y(): int&#10;+WasHits(): bool&#10;" style="text;strokeColor=none;fillColor=none;align=left;verticalAlign=top;spacingLeft=4;spacingRight=4;overflow=hidden;rotatable=0;points=[[0,0.5],[1,0.5]];portConstraint=eastwest;" parent="280" vertex="1">
                    <mxGeometry y="26" width="300" height="44" as="geometry"/>
                </mxCell>
                <mxCell id="282" value="" style="line;strokeWidth=1;fillColor=none;align=left;verticalAlign=middle;spacingTop=-1;spacingLeft=3;spacingRight=3;rotatable=0;labelPosition=right;points=[];portConstraint=eastwest;" parent="280" vertex="1">
                    <mxGeometry y="70" width="300" height="8" as="geometry"/>
                </mxCell>
                <mxCell id="283" value="+Equals(int, int): bool&#10;+Equals(object): bool&#10;+Equals(BoatPosition): bool&#10;+GetHashCode(): int&#10;+ConvertToJson(): string&#10;+LoadFromJson(string): void" style="text;strokeColor=none;fillColor=none;align=left;verticalAlign=top;spacingLeft=4;spacingRight=4;overflow=hidden;rotatable=0;points=[[0,0.5],[1,0.5]];portConstraint=eastwest;" parent="280" vertex="1">
                    <mxGeometry y="78" width="300" height="102" as="geometry"/>
                </mxCell>
                <mxCell id="284" value="IBot" style="swimlane;fontStyle=1;align=center;verticalAlign=top;childLayout=stackLayout;horizontal=1;startSize=26;horizontalStack=0;resizeParent=1;resizeParentMax=0;resizeLast=0;collapsible=1;marginBottom=0;" parent="1" vertex="1">
                    <mxGeometry x="-300" y="-1295" width="210" height="126" as="geometry"/>
                </mxCell>
                <mxCell id="286" value="" style="line;strokeWidth=1;fillColor=none;align=left;verticalAlign=middle;spacingTop=-1;spacingLeft=3;spacingRight=3;rotatable=0;labelPosition=right;points=[];portConstraint=eastwest;" parent="284" vertex="1">
                    <mxGeometry y="26" width="210" height="8" as="geometry"/>
                </mxCell>
                <mxCell id="287" value="+SetHandler(AbstractHandler):void&#10;+Send(long, string): void&#10;+SendImage(Message, string): void&#10;+SendGif(Message, string): void&#10;+OnMessage(long, string): void&#10;+StartReceiving(): void&#10;" style="text;strokeColor=none;fillColor=none;align=left;verticalAlign=top;spacingLeft=4;spacingRight=4;overflow=hidden;rotatable=0;points=[[0,0.5],[1,0.5]];portConstraint=eastwest;" parent="284" vertex="1">
                    <mxGeometry y="34" width="210" height="92" as="geometry"/>
                </mxCell>
                <mxCell id="288" value="Message" style="swimlane;fontStyle=1;align=center;verticalAlign=top;childLayout=stackLayout;horizontal=1;startSize=26;horizontalStack=0;resizeParent=1;resizeParentMax=0;resizeLast=0;collapsible=1;marginBottom=0;" parent="1" vertex="1">
                    <mxGeometry x="319" y="-1590" width="210" height="78" as="geometry"/>
                </mxCell>
                <mxCell id="289" value="+ ID(): long&#10;+ Text(): string " style="text;strokeColor=none;fillColor=none;align=left;verticalAlign=top;spacingLeft=4;spacingRight=4;overflow=hidden;rotatable=0;points=[[0,0.5],[1,0.5]];portConstraint=eastwest;" parent="288" vertex="1">
                    <mxGeometry y="26" width="210" height="44" as="geometry"/>
                </mxCell>
                <mxCell id="290" value="" style="line;strokeWidth=1;fillColor=none;align=left;verticalAlign=middle;spacingTop=-1;spacingLeft=3;spacingRight=3;rotatable=0;labelPosition=right;points=[];portConstraint=eastwest;" parent="288" vertex="1">
                    <mxGeometry y="70" width="210" height="8" as="geometry"/>
                </mxCell>
                <mxCell id="292" value="Singleton &lt;T&gt;" style="swimlane;fontStyle=1;align=center;verticalAlign=top;childLayout=stackLayout;horizontal=1;startSize=26;horizontalStack=0;resizeParent=1;resizeParentMax=0;resizeLast=0;collapsible=1;marginBottom=0;" parent="1" vertex="1">
                    <mxGeometry x="110" y="-545" width="160" height="78" as="geometry"/>
                </mxCell>
                <mxCell id="293" value="+ T Instance&#10;- T instance" style="text;strokeColor=none;fillColor=none;align=left;verticalAlign=top;spacingLeft=4;spacingRight=4;overflow=hidden;rotatable=0;points=[[0,0.5],[1,0.5]];portConstraint=eastwest;" parent="292" vertex="1">
                    <mxGeometry y="26" width="160" height="44" as="geometry"/>
                </mxCell>
                <mxCell id="294" value="" style="line;strokeWidth=1;fillColor=none;align=left;verticalAlign=middle;spacingTop=-1;spacingLeft=3;spacingRight=3;rotatable=0;labelPosition=right;points=[];portConstraint=eastwest;" parent="292" vertex="1">
                    <mxGeometry y="70" width="160" height="8" as="geometry"/>
                </mxCell>
                <mxCell id="295" value="GameAttackHandler" style="swimlane;fontStyle=1;align=center;verticalAlign=top;childLayout=stackLayout;horizontal=1;startSize=26;horizontalStack=0;resizeParent=1;resizeParentMax=0;resizeLast=0;collapsible=1;marginBottom=0;" parent="1" vertex="1">
                    <mxGeometry x="745" y="-958" width="310" height="110" as="geometry"/>
                </mxCell>
                <mxCell id="296" value="- userContainer: Singleton&lt;UserContainer&gt;.Instance&#10;- gameContainer: Singleton&lt;GameContainer&gt;.Instance" style="text;strokeColor=none;fillColor=none;align=left;verticalAlign=top;spacingLeft=4;spacingRight=4;overflow=hidden;rotatable=0;points=[[0,0.5],[1,0.5]];portConstraint=eastwest;" parent="295" vertex="1">
                    <mxGeometry y="26" width="310" height="34" as="geometry"/>
                </mxCell>
                <mxCell id="297" value="" style="line;strokeWidth=1;fillColor=none;align=left;verticalAlign=middle;spacingTop=-1;spacingLeft=3;spacingRight=3;rotatable=0;labelPosition=right;points=[];portConstraint=eastwest;" parent="295" vertex="1">
                    <mxGeometry y="60" width="310" height="8" as="geometry"/>
                </mxCell>
                <mxCell id="298" value="+InternalHandle(Message): IHandler&#10;+CanHandle(Message): string" style="text;strokeColor=none;fillColor=none;align=left;verticalAlign=top;spacingLeft=4;spacingRight=4;overflow=hidden;rotatable=0;points=[[0,0.5],[1,0.5]];portConstraint=eastwest;" parent="295" vertex="1">
                    <mxGeometry y="68" width="310" height="42" as="geometry"/>
                </mxCell>
                <mxCell id="299" value="GameBoardsHandler" style="swimlane;fontStyle=1;align=center;verticalAlign=top;childLayout=stackLayout;horizontal=1;startSize=26;horizontalStack=0;resizeParent=1;resizeParentMax=0;resizeLast=0;collapsible=1;marginBottom=0;" parent="1" vertex="1">
                    <mxGeometry x="950" y="-1198" width="310" height="110" as="geometry"/>
                </mxCell>
                <mxCell id="300" value="- userContainer: Singleton&lt;UserContainer&gt;.Instance&#10;- gameContainer: Singleton&lt;GameContainer&gt;.Instance" style="text;strokeColor=none;fillColor=none;align=left;verticalAlign=top;spacingLeft=4;spacingRight=4;overflow=hidden;rotatable=0;points=[[0,0.5],[1,0.5]];portConstraint=eastwest;" parent="299" vertex="1">
                    <mxGeometry y="26" width="310" height="34" as="geometry"/>
                </mxCell>
                <mxCell id="301" value="" style="line;strokeWidth=1;fillColor=none;align=left;verticalAlign=middle;spacingTop=-1;spacingLeft=3;spacingRight=3;rotatable=0;labelPosition=right;points=[];portConstraint=eastwest;" parent="299" vertex="1">
                    <mxGeometry y="60" width="310" height="8" as="geometry"/>
                </mxCell>
                <mxCell id="302" value="+InternalHandle(Message): IHandler&#10;+CanHandle(Message): string" style="text;strokeColor=none;fillColor=none;align=left;verticalAlign=top;spacingLeft=4;spacingRight=4;overflow=hidden;rotatable=0;points=[[0,0.5],[1,0.5]];portConstraint=eastwest;" parent="299" vertex="1">
                    <mxGeometry y="68" width="310" height="42" as="geometry"/>
                </mxCell>
                <mxCell id="303" value="GameChatHandler" style="swimlane;fontStyle=1;align=center;verticalAlign=top;childLayout=stackLayout;horizontal=1;startSize=26;horizontalStack=0;resizeParent=1;resizeParentMax=0;resizeLast=0;collapsible=1;marginBottom=0;" parent="1" vertex="1">
                    <mxGeometry x="931" y="-1342" width="310" height="110" as="geometry"/>
                </mxCell>
                <mxCell id="304" value="- userContainer: Singleton&lt;UserContainer&gt;.Instance&#10;- gameContainer: Singleton&lt;GameContainer&gt;.Instance" style="text;strokeColor=none;fillColor=none;align=left;verticalAlign=top;spacingLeft=4;spacingRight=4;overflow=hidden;rotatable=0;points=[[0,0.5],[1,0.5]];portConstraint=eastwest;" parent="303" vertex="1">
                    <mxGeometry y="26" width="310" height="34" as="geometry"/>
                </mxCell>
                <mxCell id="305" value="" style="line;strokeWidth=1;fillColor=none;align=left;verticalAlign=middle;spacingTop=-1;spacingLeft=3;spacingRight=3;rotatable=0;labelPosition=right;points=[];portConstraint=eastwest;" parent="303" vertex="1">
                    <mxGeometry y="60" width="310" height="8" as="geometry"/>
                </mxCell>
                <mxCell id="306" value="+InternalHandle(Message): IHandler&#10;+CanHandle(Message): string" style="text;strokeColor=none;fillColor=none;align=left;verticalAlign=top;spacingLeft=4;spacingRight=4;overflow=hidden;rotatable=0;points=[[0,0.5],[1,0.5]];portConstraint=eastwest;" parent="303" vertex="1">
                    <mxGeometry y="68" width="310" height="42" as="geometry"/>
                </mxCell>
                <mxCell id="307" value="GameExitHandler" style="swimlane;fontStyle=1;align=center;verticalAlign=top;childLayout=stackLayout;horizontal=1;startSize=26;horizontalStack=0;resizeParent=1;resizeParentMax=0;resizeLast=0;collapsible=1;marginBottom=0;" parent="1" vertex="1">
                    <mxGeometry x="931" y="-1484" width="310" height="110" as="geometry"/>
                </mxCell>
                <mxCell id="308" value="- userContainer: Singleton&lt;UserContainer&gt;.Instance&#10;- gameContainer: Singleton&lt;GameContainer&gt;.Instance" style="text;strokeColor=none;fillColor=none;align=left;verticalAlign=top;spacingLeft=4;spacingRight=4;overflow=hidden;rotatable=0;points=[[0,0.5],[1,0.5]];portConstraint=eastwest;" parent="307" vertex="1">
                    <mxGeometry y="26" width="310" height="34" as="geometry"/>
                </mxCell>
                <mxCell id="309" value="" style="line;strokeWidth=1;fillColor=none;align=left;verticalAlign=middle;spacingTop=-1;spacingLeft=3;spacingRight=3;rotatable=0;labelPosition=right;points=[];portConstraint=eastwest;" parent="307" vertex="1">
                    <mxGeometry y="60" width="310" height="8" as="geometry"/>
                </mxCell>
                <mxCell id="310" value="+InternalHandle(Message): IHandler&#10;+CanHandle(Message): string" style="text;strokeColor=none;fillColor=none;align=left;verticalAlign=top;spacingLeft=4;spacingRight=4;overflow=hidden;rotatable=0;points=[[0,0.5],[1,0.5]];portConstraint=eastwest;" parent="307" vertex="1">
                    <mxGeometry y="68" width="310" height="42" as="geometry"/>
                </mxCell>
                <mxCell id="311" value="InfoHandler" style="swimlane;fontStyle=1;align=center;verticalAlign=top;childLayout=stackLayout;horizontal=1;startSize=26;horizontalStack=0;resizeParent=1;resizeParentMax=0;resizeLast=0;collapsible=1;marginBottom=0;" parent="1" vertex="1">
                    <mxGeometry x="680" y="-1672" width="310" height="110" as="geometry"/>
                </mxCell>
                <mxCell id="312" value="- userContainer: Singleton&lt;UserContainer&gt;.Instance&#10;- gameContainer: Singleton&lt;GameContainer&gt;.Instance" style="text;strokeColor=none;fillColor=none;align=left;verticalAlign=top;spacingLeft=4;spacingRight=4;overflow=hidden;rotatable=0;points=[[0,0.5],[1,0.5]];portConstraint=eastwest;" parent="311" vertex="1">
                    <mxGeometry y="26" width="310" height="34" as="geometry"/>
                </mxCell>
                <mxCell id="313" value="" style="line;strokeWidth=1;fillColor=none;align=left;verticalAlign=middle;spacingTop=-1;spacingLeft=3;spacingRight=3;rotatable=0;labelPosition=right;points=[];portConstraint=eastwest;" parent="311" vertex="1">
                    <mxGeometry y="60" width="310" height="8" as="geometry"/>
                </mxCell>
                <mxCell id="314" value="+InternalHandle(Message): IHandler&#10;+CanHandle(Message): string" style="text;strokeColor=none;fillColor=none;align=left;verticalAlign=top;spacingLeft=4;spacingRight=4;overflow=hidden;rotatable=0;points=[[0,0.5],[1,0.5]];portConstraint=eastwest;" parent="311" vertex="1">
                    <mxGeometry y="68" width="310" height="42" as="geometry"/>
                </mxCell>
                <mxCell id="315" value="IFriendsHolder" style="swimlane;fontStyle=1;align=center;verticalAlign=top;childLayout=stackLayout;horizontal=1;startSize=26;horizontalStack=0;resizeParent=1;resizeParentMax=0;resizeLast=0;collapsible=1;marginBottom=0;" parent="1" vertex="1">
                    <mxGeometry x="-560" y="-240" width="240" height="116" as="geometry"/>
                </mxCell>
                <mxCell id="317" value="" style="line;strokeWidth=1;fillColor=none;align=left;verticalAlign=middle;spacingTop=-1;spacingLeft=3;spacingRight=3;rotatable=0;labelPosition=right;points=[];portConstraint=eastwest;" parent="315" vertex="1">
                    <mxGeometry y="26" width="240" height="10" as="geometry"/>
                </mxCell>
                <mxCell id="318" value="+AddElement(IStatsHolder): void&#10;+RemoveElement(IStatsHolder): void&#10;+Friends: Collection &lt;IStatsHolder&gt;&#10;" style="text;strokeColor=none;fillColor=none;align=left;verticalAlign=top;spacingLeft=4;spacingRight=4;overflow=hidden;rotatable=0;points=[[0,0.5],[1,0.5]];portConstraint=eastwest;" parent="315" vertex="1">
                    <mxGeometry y="36" width="240" height="80" as="geometry"/>
                </mxCell>
                <mxCell id="322" value="IStatusHolder" style="swimlane;fontStyle=1;align=center;verticalAlign=top;childLayout=stackLayout;horizontal=1;startSize=26;horizontalStack=0;resizeParent=1;resizeParentMax=0;resizeLast=0;collapsible=1;marginBottom=0;" parent="1" vertex="1">
                    <mxGeometry x="-340" y="-70" width="220" height="170" as="geometry"/>
                </mxCell>
                <mxCell id="323" value="+ID: long&#10;+FullName: string&#10;+NickName: string&#10;+Wins: int&#10;+Losses: int&#10;+Ties: int&#10;" style="text;strokeColor=none;fillColor=none;align=left;verticalAlign=top;spacingLeft=4;spacingRight=4;overflow=hidden;rotatable=0;points=[[0,0.5],[1,0.5]];portConstraint=eastwest;" parent="322" vertex="1">
                    <mxGeometry y="26" width="220" height="94" as="geometry"/>
                </mxCell>
                <mxCell id="324" value="" style="line;strokeWidth=1;fillColor=none;align=left;verticalAlign=middle;spacingTop=-1;spacingLeft=3;spacingRight=3;rotatable=0;labelPosition=right;points=[];portConstraint=eastwest;" parent="322" vertex="1">
                    <mxGeometry y="120" width="220" height="8" as="geometry"/>
                </mxCell>
                <mxCell id="325" value="+GetHitPercentage(): double&#10;+GetMissPercentage(): double" style="text;strokeColor=none;fillColor=none;align=left;verticalAlign=top;spacingLeft=4;spacingRight=4;overflow=hidden;rotatable=0;points=[[0,0.5],[1,0.5]];portConstraint=eastwest;" parent="322" vertex="1">
                    <mxGeometry y="128" width="220" height="42" as="geometry"/>
                </mxCell>
                <mxCell id="326" value="BattleShipSettings" style="swimlane;fontStyle=1;align=center;verticalAlign=top;childLayout=stackLayout;horizontal=1;startSize=26;horizontalStack=0;resizeParent=1;resizeParentMax=0;resizeLast=0;collapsible=1;marginBottom=0;" parent="1" vertex="1">
                    <mxGeometry x="1180" y="-740" width="220" height="98" as="geometry"/>
                </mxCell>
                <mxCell id="327" value="-_instance:BattleShipSettings&#10;+TurnTimerPeriod():int&#10;+GetUsedBot: IBot&#10;+Instance: BattleShipSettings&#10;" style="text;strokeColor=none;fillColor=none;align=left;verticalAlign=top;spacingLeft=4;spacingRight=4;overflow=hidden;rotatable=0;points=[[0,0.5],[1,0.5]];portConstraint=eastwest;" parent="326" vertex="1">
                    <mxGeometry y="26" width="220" height="64" as="geometry"/>
                </mxCell>
                <mxCell id="328" value="" style="line;strokeWidth=1;fillColor=none;align=left;verticalAlign=middle;spacingTop=-1;spacingLeft=3;spacingRight=3;rotatable=0;labelPosition=right;points=[];portConstraint=eastwest;" parent="326" vertex="1">
                    <mxGeometry y="90" width="220" height="8" as="geometry"/>
                </mxCell>
                <mxCell id="330" value="Hereda" style="endArrow=block;endSize=16;endFill=0;html=1;entryX=1;entryY=0.5;entryDx=0;entryDy=0;exitX=0;exitY=0.5;exitDx=0;exitDy=0;" parent="1" source="30" target="287" edge="1">
                    <mxGeometry width="160" relative="1" as="geometry">
                        <mxPoint x="-110.04999999999995" y="-1219" as="sourcePoint"/>
                        <mxPoint x="100.04999999999995" y="-1355" as="targetPoint"/>
                    </mxGeometry>
                </mxCell>
                <mxCell id="339" value="Hereda" style="endArrow=block;endSize=16;endFill=0;html=1;entryX=0.966;entryY=-0.022;entryDx=0;entryDy=0;exitX=0;exitY=0.082;exitDx=0;exitDy=0;entryPerimeter=0;exitPerimeter=0;" parent="1" source="302" target="49" edge="1">
                    <mxGeometry width="160" relative="1" as="geometry">
                        <mxPoint x="1189.9999999999995" y="-1037.4" as="sourcePoint"/>
                        <mxPoint x="563.73" y="-1198.0000000000002" as="targetPoint"/>
                    </mxGeometry>
                </mxCell>
                <mxCell id="340" value="Hereda" style="endArrow=block;endSize=16;endFill=0;html=1;exitX=0;exitY=0.5;exitDx=0;exitDy=0;entryX=1.013;entryY=0.103;entryDx=0;entryDy=0;entryPerimeter=0;" parent="1" source="304" target="47" edge="1">
                    <mxGeometry width="160" relative="1" as="geometry">
                        <mxPoint x="1204.9999999999995" y="-938" as="sourcePoint"/>
                        <mxPoint x="578.73" y="-1098.6000000000001" as="targetPoint"/>
                    </mxGeometry>
                </mxCell>
                <mxCell id="341" value="Hereda" style="endArrow=block;endSize=16;endFill=0;html=1;exitX=0;exitY=0.5;exitDx=0;exitDy=0;entryX=1;entryY=0;entryDx=0;entryDy=0;" parent="1" source="308" target="46" edge="1">
                    <mxGeometry width="160" relative="1" as="geometry">
                        <mxPoint x="941" y="-1289" as="sourcePoint"/>
                        <mxPoint x="572.5100000000002" y="-1218.498" as="targetPoint"/>
                    </mxGeometry>
                </mxCell>
                <mxCell id="342" value="Hereda" style="endArrow=block;endSize=16;endFill=0;html=1;exitX=0.219;exitY=1.051;exitDx=0;exitDy=0;entryX=0.879;entryY=0.012;entryDx=0;entryDy=0;entryPerimeter=0;exitPerimeter=0;" parent="1" source="314" target="46" edge="1">
                    <mxGeometry width="160" relative="1" as="geometry">
                        <mxPoint x="941" y="-1431" as="sourcePoint"/>
                        <mxPoint x="569" y="-1248" as="targetPoint"/>
                    </mxGeometry>
                </mxCell>
                <mxCell id="345" value="Use" style="endArrow=open;endSize=12;dashed=1;html=1;exitX=0.494;exitY=1.143;exitDx=0;exitDy=0;exitPerimeter=0;entryX=0.5;entryY=0;entryDx=0;entryDy=0;" parent="1" source="57" target="257" edge="1">
                    <mxGeometry width="160" relative="1" as="geometry">
                        <mxPoint x="430" y="-780" as="sourcePoint"/>
                        <mxPoint x="590" y="-780" as="targetPoint"/>
                        <Array as="points">
                            <mxPoint x="583" y="-800"/>
                            <mxPoint x="140" y="-800"/>
                        </Array>
                    </mxGeometry>
                </mxCell>
                <mxCell id="347" value="Use" style="endArrow=open;endSize=12;dashed=1;html=1;exitX=0.892;exitY=0.001;exitDx=0;exitDy=0;exitPerimeter=0;entryX=0.484;entryY=1.167;entryDx=0;entryDy=0;entryPerimeter=0;" parent="1" source="218" target="328" edge="1">
                    <mxGeometry width="160" relative="1" as="geometry">
                        <mxPoint x="1570" y="-670" as="sourcePoint"/>
                        <mxPoint x="1730" y="-670" as="targetPoint"/>
                        <Array as="points">
                            <mxPoint x="1180" y="-600"/>
                            <mxPoint x="1280" y="-600"/>
                        </Array>
                    </mxGeometry>
                </mxCell>
                <mxCell id="348" value="Use" style="endArrow=open;endSize=12;dashed=1;html=1;exitX=0.5;exitY=0;exitDx=0;exitDy=0;entryX=0;entryY=0.5;entryDx=0;entryDy=0;" parent="1" source="10" target="265" edge="1">
                    <mxGeometry width="160" relative="1" as="geometry">
                        <mxPoint x="1940" y="-760" as="sourcePoint"/>
                        <mxPoint x="2100" y="-760" as="targetPoint"/>
                    </mxGeometry>
                </mxCell>
                <mxCell id="349" value="Use" style="endArrow=open;endSize=12;dashed=1;html=1;exitX=0.476;exitY=1.125;exitDx=0;exitDy=0;exitPerimeter=0;entryX=0.25;entryY=0;entryDx=0;entryDy=0;" parent="1" source="255" target="38" edge="1">
                    <mxGeometry width="160" relative="1" as="geometry">
                        <mxPoint x="-660" y="-700" as="sourcePoint"/>
                        <mxPoint x="-500" y="-700" as="targetPoint"/>
                        <Array as="points">
                            <mxPoint x="-677" y="-430"/>
                            <mxPoint x="200" y="-440"/>
                        </Array>
                    </mxGeometry>
                </mxCell>
                <mxCell id="350" value="Use" style="endArrow=open;endSize=12;dashed=1;html=1;exitX=0.667;exitY=1.19;exitDx=0;exitDy=0;exitPerimeter=0;entryX=0;entryY=0;entryDx=0;entryDy=0;" parent="1" source="87" target="38" edge="1">
                    <mxGeometry width="160" relative="1" as="geometry">
                        <mxPoint x="-200" y="-780" as="sourcePoint"/>
                        <mxPoint x="-40" y="-780" as="targetPoint"/>
                    </mxGeometry>
                </mxCell>
                <mxCell id="351" value="Use" style="endArrow=open;endSize=12;dashed=1;html=1;exitX=0.777;exitY=1.069;exitDx=0;exitDy=0;exitPerimeter=0;" parent="1" source="74" target="38" edge="1">
                    <mxGeometry width="160" relative="1" as="geometry">
                        <mxPoint x="-259.9000000000001" y="-830.02" as="sourcePoint"/>
                        <mxPoint x="200" y="-344" as="targetPoint"/>
                        <Array as="points">
                            <mxPoint x="305" y="-760"/>
                        </Array>
                    </mxGeometry>
                </mxCell>
                <mxCell id="353" value="Use" style="endArrow=open;endSize=12;dashed=1;html=1;exitX=0.274;exitY=1.19;exitDx=0;exitDy=0;exitPerimeter=0;entryX=0.932;entryY=0.01;entryDx=0;entryDy=0;entryPerimeter=0;" parent="1" source="298" target="50" edge="1">
                    <mxGeometry width="160" relative="1" as="geometry">
                        <mxPoint x="770" y="-740" as="sourcePoint"/>
                        <mxPoint x="930" y="-740" as="targetPoint"/>
                        <Array as="points">
                            <mxPoint x="750" y="-690"/>
                        </Array>
                    </mxGeometry>
                </mxCell>
                <mxCell id="354" value="Use" style="endArrow=open;endSize=12;dashed=1;html=1;exitX=1;exitY=0.5;exitDx=0;exitDy=0;entryX=1;entryY=0.5;entryDx=0;entryDy=0;" parent="1" source="300" target="219" edge="1">
                    <mxGeometry width="160" relative="1" as="geometry">
                        <mxPoint x="1340" y="-1070" as="sourcePoint"/>
                        <mxPoint x="1500" y="-1070" as="targetPoint"/>
                        <Array as="points">
                            <mxPoint x="1510" y="-1155"/>
                            <mxPoint x="1500" y="-470"/>
                        </Array>
                    </mxGeometry>
                </mxCell>
                <mxCell id="355" value="Use" style="endArrow=open;endSize=12;dashed=1;html=1;exitX=1;exitY=0.5;exitDx=0;exitDy=0;entryX=0;entryY=0;entryDx=0;entryDy=0;" parent="1" source="302" target="10" edge="1">
                    <mxGeometry width="160" relative="1" as="geometry">
                        <mxPoint x="1300" y="-1070" as="sourcePoint"/>
                        <mxPoint x="1460" y="-1070" as="targetPoint"/>
                    </mxGeometry>
                </mxCell>
                <mxCell id="356" value="1" style="endArrow=open;html=1;endSize=12;startArrow=diamondThin;startSize=14;startFill=0;edgeStyle=orthogonalEdgeStyle;align=left;verticalAlign=bottom;exitX=1;exitY=0.5;exitDx=0;exitDy=0;entryX=1.02;entryY=0.07;entryDx=0;entryDy=0;entryPerimeter=0;" parent="1" source="15" target="283" edge="1">
                    <mxGeometry x="-1" y="3" relative="1" as="geometry">
                        <mxPoint x="1720" y="-170" as="sourcePoint"/>
                        <mxPoint x="1880" y="-170" as="targetPoint"/>
                        <Array as="points">
                            <mxPoint x="1630" y="-197"/>
                            <mxPoint x="1630" y="-170"/>
                            <mxPoint x="2380" y="-170"/>
                            <mxPoint x="2380" y="175"/>
                        </Array>
                    </mxGeometry>
                </mxCell>
                <mxCell id="357" value="Use" style="endArrow=open;endSize=12;dashed=1;html=1;entryX=0.179;entryY=0.003;entryDx=0;entryDy=0;entryPerimeter=0;" parent="1" target="207" edge="1">
                    <mxGeometry width="160" relative="1" as="geometry">
                        <mxPoint x="990" y="-1630" as="sourcePoint"/>
                        <mxPoint x="1150" y="-1630" as="targetPoint"/>
                        <Array as="points">
                            <mxPoint x="1070" y="-1630"/>
                            <mxPoint x="1070" y="-1840"/>
                            <mxPoint x="-870" y="-1840"/>
                            <mxPoint x="-870" y="-410"/>
                        </Array>
                    </mxGeometry>
                </mxCell>
                <mxCell id="358" value="Use" style="endArrow=open;endSize=12;dashed=1;html=1;exitX=1;exitY=0.5;exitDx=0;exitDy=0;" parent="1" source="308" edge="1">
                    <mxGeometry width="160" relative="1" as="geometry">
                        <mxPoint x="1300" y="-1470" as="sourcePoint"/>
                        <mxPoint x="1220" y="-420" as="targetPoint"/>
                        <Array as="points">
                            <mxPoint x="1450" y="-1441"/>
                            <mxPoint x="1450" y="-420"/>
                        </Array>
                    </mxGeometry>
                </mxCell>
                <mxCell id="359" value="Use" style="endArrow=open;endSize=12;dashed=1;html=1;exitX=1;exitY=0.5;exitDx=0;exitDy=0;entryX=0.5;entryY=0;entryDx=0;entryDy=0;" parent="1" source="304" edge="1" target="50">
                    <mxGeometry width="160" relative="1" as="geometry">
                        <mxPoint x="1250" y="-1300" as="sourcePoint"/>
                        <mxPoint x="720" y="-370" as="targetPoint"/>
                        <Array as="points">
                            <mxPoint x="1530" y="-1299"/>
                            <mxPoint x="1530" y="-630"/>
                            <mxPoint x="630" y="-630"/>
                        </Array>
                    </mxGeometry>
                </mxCell>
                <mxCell id="360" value="Use" style="endArrow=open;endSize=12;dashed=1;html=1;exitX=0.5;exitY=0;exitDx=0;exitDy=0;entryX=0.48;entryY=0.911;entryDx=0;entryDy=0;entryPerimeter=0;" edge="1" parent="1" source="42" target="290">
                    <mxGeometry width="160" relative="1" as="geometry">
                        <mxPoint x="340" y="-1500" as="sourcePoint"/>
                        <mxPoint x="500" y="-1500" as="targetPoint"/>
                    </mxGeometry>
                </mxCell>
                <mxCell id="361" value="Use" style="endArrow=open;endSize=12;dashed=1;html=1;exitX=1;exitY=0.5;exitDx=0;exitDy=0;entryX=0.25;entryY=0;entryDx=0;entryDy=0;" edge="1" parent="1" source="310" target="50">
                    <mxGeometry width="160" relative="1" as="geometry">
                        <mxPoint x="1320" y="-1380" as="sourcePoint"/>
                        <mxPoint x="1480" y="-1380" as="targetPoint"/>
                        <Array as="points">
                            <mxPoint x="1420" y="-1395"/>
                            <mxPoint x="1420" y="-760"/>
                            <mxPoint x="710" y="-760"/>
                            <mxPoint x="710" y="-450"/>
                            <mxPoint x="560" y="-450"/>
                        </Array>
                    </mxGeometry>
                </mxCell>
                <mxCell id="362" value="Use" style="endArrow=open;endSize=12;dashed=1;html=1;exitX=0.406;exitY=-0.002;exitDx=0;exitDy=0;exitPerimeter=0;entryX=0.75;entryY=1;entryDx=0;entryDy=0;" edge="1" parent="1" source="38" target="292">
                    <mxGeometry width="160" relative="1" as="geometry">
                        <mxPoint x="240" y="-460" as="sourcePoint"/>
                        <mxPoint x="400" y="-460" as="targetPoint"/>
                        <Array as="points">
                            <mxPoint x="280" y="-440"/>
                            <mxPoint x="230" y="-440"/>
                        </Array>
                    </mxGeometry>
                </mxCell>
                <mxCell id="363" value="Use" style="endArrow=open;endSize=12;dashed=1;html=1;exitX=0.117;exitY=-0.001;exitDx=0;exitDy=0;exitPerimeter=0;entryX=1.01;entryY=0.884;entryDx=0;entryDy=0;entryPerimeter=0;" edge="1" parent="1" source="50" target="293">
                    <mxGeometry width="160" relative="1" as="geometry">
                        <mxPoint x="370" y="-400" as="sourcePoint"/>
                        <mxPoint x="530" y="-400" as="targetPoint"/>
                        <Array as="points">
                            <mxPoint x="530" y="-470"/>
                        </Array>
                    </mxGeometry>
                </mxCell>
                <mxCell id="364" value="Manageable&lt;TManaged&gt;" style="swimlane;fontStyle=1;align=center;verticalAlign=top;childLayout=stackLayout;horizontal=1;startSize=26;horizontalStack=0;resizeParent=1;resizeParentMax=0;resizeLast=0;collapsible=1;marginBottom=0;" vertex="1" parent="1">
                    <mxGeometry x="-190" y="-2200" width="160" height="86" as="geometry"/>
                </mxCell>
                <mxCell id="365" value="+ Type: Type" style="text;strokeColor=none;fillColor=none;align=left;verticalAlign=top;spacingLeft=4;spacingRight=4;overflow=hidden;rotatable=0;points=[[0,0.5],[1,0.5]];portConstraint=eastwest;" vertex="1" parent="364">
                    <mxGeometry y="26" width="160" height="26" as="geometry"/>
                </mxCell>
                <mxCell id="366" value="" style="line;strokeWidth=1;fillColor=none;align=left;verticalAlign=middle;spacingTop=-1;spacingLeft=3;spacingRight=3;rotatable=0;labelPosition=right;points=[];portConstraint=eastwest;" vertex="1" parent="364">
                    <mxGeometry y="52" width="160" height="8" as="geometry"/>
                </mxCell>
                <mxCell id="367" value="- Managable(Type)" style="text;strokeColor=none;fillColor=none;align=left;verticalAlign=top;spacingLeft=4;spacingRight=4;overflow=hidden;rotatable=0;points=[[0,0.5],[1,0.5]];portConstraint=eastwest;" vertex="1" parent="364">
                    <mxGeometry y="60" width="160" height="26" as="geometry"/>
                </mxCell>
                <mxCell id="368" value="BoatData" style="swimlane;fontStyle=1;align=center;verticalAlign=top;childLayout=stackLayout;horizontal=1;startSize=26;horizontalStack=0;resizeParent=1;resizeParentMax=0;resizeLast=0;collapsible=1;marginBottom=0;" vertex="1" parent="1">
                    <mxGeometry x="-350" y="-2050" width="160" height="60" as="geometry"/>
                </mxCell>
                <mxCell id="369" value="+ Size: int" style="text;strokeColor=none;fillColor=none;align=left;verticalAlign=top;spacingLeft=4;spacingRight=4;overflow=hidden;rotatable=0;points=[[0,0.5],[1,0.5]];portConstraint=eastwest;" vertex="1" parent="368">
                    <mxGeometry y="26" width="160" height="26" as="geometry"/>
                </mxCell>
                <mxCell id="370" value="" style="line;strokeWidth=1;fillColor=none;align=left;verticalAlign=middle;spacingTop=-1;spacingLeft=3;spacingRight=3;rotatable=0;labelPosition=right;points=[];portConstraint=eastwest;" vertex="1" parent="368">
                    <mxGeometry y="52" width="160" height="8" as="geometry"/>
                </mxCell>
                <mxCell id="372" value="BoardData&#10;" style="swimlane;fontStyle=1;align=center;verticalAlign=top;childLayout=stackLayout;horizontal=1;startSize=26;horizontalStack=0;resizeParent=1;resizeParentMax=0;resizeLast=0;collapsible=1;marginBottom=0;" vertex="1" parent="1">
                    <mxGeometry x="-25" y="-2050" width="270" height="60" as="geometry"/>
                </mxCell>
                <mxCell id="373" value="+ NeededBoatsForBoard: Dictionary&lt;string, int&gt;" style="text;strokeColor=none;fillColor=none;align=left;verticalAlign=top;spacingLeft=4;spacingRight=4;overflow=hidden;rotatable=0;points=[[0,0.5],[1,0.5]];portConstraint=eastwest;" vertex="1" parent="372">
                    <mxGeometry y="26" width="270" height="26" as="geometry"/>
                </mxCell>
                <mxCell id="374" value="" style="line;strokeWidth=1;fillColor=none;align=left;verticalAlign=middle;spacingTop=-1;spacingLeft=3;spacingRight=3;rotatable=0;labelPosition=right;points=[];portConstraint=eastwest;" vertex="1" parent="372">
                    <mxGeometry y="52" width="270" height="8" as="geometry"/>
                </mxCell>
                <mxCell id="375" value="Hereda" style="endArrow=block;endSize=16;endFill=0;html=1;exitX=0.5;exitY=0;exitDx=0;exitDy=0;entryX=0.279;entryY=1.231;entryDx=0;entryDy=0;entryPerimeter=0;" edge="1" parent="1" source="368" target="367">
                    <mxGeometry width="160" relative="1" as="geometry">
                        <mxPoint x="108.0600000000004" y="-2319.3199999999997" as="sourcePoint"/>
                        <mxPoint x="-125" y="-2070" as="targetPoint"/>
                    </mxGeometry>
                </mxCell>
                <mxCell id="376" value="Hereda" style="endArrow=block;endSize=16;endFill=0;html=1;exitX=0.5;exitY=0;exitDx=0;exitDy=0;entryX=0.779;entryY=1.103;entryDx=0;entryDy=0;entryPerimeter=0;" edge="1" parent="1" source="372" target="367">
                    <mxGeometry width="160" relative="1" as="geometry">
                        <mxPoint x="-133.5999999999999" y="-2103.0119999999997" as="sourcePoint"/>
                        <mxPoint x="125" y="-2090" as="targetPoint"/>
                    </mxGeometry>
                </mxCell>
                <mxCell id="377" value="AbstractManager&lt;TManagable, TManaged&gt;" style="swimlane;fontStyle=1;align=center;verticalAlign=top;childLayout=stackLayout;horizontal=1;startSize=26;horizontalStack=0;resizeParent=1;resizeParentMax=0;resizeLast=0;collapsible=1;marginBottom=0;" vertex="1" parent="1">
                    <mxGeometry x="-850" y="-2230" width="290" height="150" as="geometry"/>
                </mxCell>
                <mxCell id="378" value="- AvailableTypes: Dictionary&lt;string, TManageable&gt;" style="text;strokeColor=none;fillColor=none;align=left;verticalAlign=top;spacingLeft=4;spacingRight=4;overflow=hidden;rotatable=0;points=[[0,0.5],[1,0.5]];portConstraint=eastwest;" vertex="1" parent="377">
                    <mxGeometry y="26" width="290" height="26" as="geometry"/>
                </mxCell>
                <mxCell id="379" value="" style="line;strokeWidth=1;fillColor=none;align=left;verticalAlign=middle;spacingTop=-1;spacingLeft=3;spacingRight=3;rotatable=0;labelPosition=right;points=[];portConstraint=eastwest;" vertex="1" parent="377">
                    <mxGeometry y="52" width="290" height="8" as="geometry"/>
                </mxCell>
                <mxCell id="380" value="+ GetAvailableTags(): List&lt;string&gt;&#10;+ GetTagByType(Type type): string&#10;+ GetTypeByTag(string): Type&#10;+ GetManageableByTag(string): TManageable&#10;+ AddAvailableType(string tag, TManageable): void" style="text;strokeColor=none;fillColor=none;align=left;verticalAlign=top;spacingLeft=4;spacingRight=4;overflow=hidden;rotatable=0;points=[[0,0.5],[1,0.5]];portConstraint=eastwest;" vertex="1" parent="377">
                    <mxGeometry y="60" width="290" height="90" as="geometry"/>
                </mxCell>
                <mxCell id="381" value="BoardsManager" style="swimlane;fontStyle=1;align=center;verticalAlign=top;childLayout=stackLayout;horizontal=1;startSize=26;horizontalStack=0;resizeParent=1;resizeParentMax=0;resizeLast=0;collapsible=1;marginBottom=0;" vertex="1" parent="1">
                    <mxGeometry x="-990" y="-2030" width="270" height="34" as="geometry"/>
                </mxCell>
                <mxCell id="383" value="" style="line;strokeWidth=1;fillColor=none;align=left;verticalAlign=middle;spacingTop=-1;spacingLeft=3;spacingRight=3;rotatable=0;labelPosition=right;points=[];portConstraint=eastwest;" vertex="1" parent="381">
                    <mxGeometry y="26" width="270" height="8" as="geometry"/>
                </mxCell>
                <mxCell id="384" value="BoatsManager" style="swimlane;fontStyle=1;align=center;verticalAlign=top;childLayout=stackLayout;horizontal=1;startSize=26;horizontalStack=0;resizeParent=1;resizeParentMax=0;resizeLast=0;collapsible=1;marginBottom=0;" vertex="1" parent="1">
                    <mxGeometry x="-670" y="-2030" width="270" height="34" as="geometry"/>
                </mxCell>
                <mxCell id="385" value="" style="line;strokeWidth=1;fillColor=none;align=left;verticalAlign=middle;spacingTop=-1;spacingLeft=3;spacingRight=3;rotatable=0;labelPosition=right;points=[];portConstraint=eastwest;" vertex="1" parent="384">
                    <mxGeometry y="26" width="270" height="8" as="geometry"/>
                </mxCell>
                <mxCell id="386" value="Hereda" style="endArrow=block;endSize=16;endFill=0;html=1;exitX=0.5;exitY=0;exitDx=0;exitDy=0;entryX=0.413;entryY=1.022;entryDx=0;entryDy=0;entryPerimeter=0;" edge="1" parent="1" source="381" target="380">
                    <mxGeometry width="160" relative="1" as="geometry">
                        <mxPoint x="-874.64" y="-2058.68" as="sourcePoint"/>
                        <mxPoint x="-1049.9999999999995" y="-2120.002" as="targetPoint"/>
                    </mxGeometry>
                </mxCell>
                <mxCell id="387" value="Hereda" style="endArrow=block;endSize=16;endFill=0;html=1;exitX=0.5;exitY=0;exitDx=0;exitDy=0;entryX=0.643;entryY=1.022;entryDx=0;entryDy=0;entryPerimeter=0;" edge="1" parent="1" source="384" target="380">
                    <mxGeometry width="160" relative="1" as="geometry">
                        <mxPoint x="-845" y="-2020" as="sourcePoint"/>
                        <mxPoint x="-720.23" y="-2068.02" as="targetPoint"/>
                    </mxGeometry>
                </mxCell>
                <mxCell id="388" value="PlaceBoatsAddHandler" style="swimlane;fontStyle=1;align=center;verticalAlign=top;childLayout=stackLayout;horizontal=1;startSize=26;horizontalStack=0;resizeParent=1;resizeParentMax=0;resizeLast=0;collapsible=1;marginBottom=0;" vertex="1" parent="1">
                    <mxGeometry x="-40" y="-1672" width="310" height="180" as="geometry"/>
                </mxCell>
                <mxCell id="389" value="- userContainer: Singleton&lt;UserContainer&gt;.Instance&#10;- gameContainer: Singleton&lt;GameContainer&gt;.Instance&#10;- Alphabet: string[]&#10;- boatsToAdd: Dictionary&lt;string, int&gt;" style="text;strokeColor=none;fillColor=none;align=left;verticalAlign=top;spacingLeft=4;spacingRight=4;overflow=hidden;rotatable=0;points=[[0,0.5],[1,0.5]];portConstraint=eastwest;" vertex="1" parent="388">
                    <mxGeometry y="26" width="310" height="64" as="geometry"/>
                </mxCell>
                <mxCell id="390" value="" style="line;strokeWidth=1;fillColor=none;align=left;verticalAlign=middle;spacingTop=-1;spacingLeft=3;spacingRight=3;rotatable=0;labelPosition=right;points=[];portConstraint=eastwest;" vertex="1" parent="388">
                    <mxGeometry y="90" width="310" height="8" as="geometry"/>
                </mxCell>
                <mxCell id="391" value="+InternalHandle(Message): IHandler&#10;+CanHandle(Message): string&#10;-IsNumber(string): bool&#10;-LetterCoordToNumber(string): int&#10;-AllAdded(User, Game): bool" style="text;strokeColor=none;fillColor=none;align=left;verticalAlign=top;spacingLeft=4;spacingRight=4;overflow=hidden;rotatable=0;points=[[0,0.5],[1,0.5]];portConstraint=eastwest;" vertex="1" parent="388">
                    <mxGeometry y="98" width="310" height="82" as="geometry"/>
                </mxCell>
                <mxCell id="392" value="PlaceBoatsRemoveHandler" style="swimlane;fontStyle=1;align=center;verticalAlign=top;childLayout=stackLayout;horizontal=1;startSize=26;horizontalStack=0;resizeParent=1;resizeParentMax=0;resizeLast=0;collapsible=1;marginBottom=0;" vertex="1" parent="1">
                    <mxGeometry x="-390" y="-1672" width="310" height="110" as="geometry"/>
                </mxCell>
                <mxCell id="393" value="- userContainer: Singleton&lt;UserContainer&gt;.Instance&#10;- gameContainer: Singleton&lt;GameContainer&gt;.Instance" style="text;strokeColor=none;fillColor=none;align=left;verticalAlign=top;spacingLeft=4;spacingRight=4;overflow=hidden;rotatable=0;points=[[0,0.5],[1,0.5]];portConstraint=eastwest;" vertex="1" parent="392">
                    <mxGeometry y="26" width="310" height="34" as="geometry"/>
                </mxCell>
                <mxCell id="394" value="" style="line;strokeWidth=1;fillColor=none;align=left;verticalAlign=middle;spacingTop=-1;spacingLeft=3;spacingRight=3;rotatable=0;labelPosition=right;points=[];portConstraint=eastwest;" vertex="1" parent="392">
                    <mxGeometry y="60" width="310" height="8" as="geometry"/>
                </mxCell>
                <mxCell id="395" value="+InternalHandle(Message): IHandler&#10;+CanHandle(Message): string" style="text;strokeColor=none;fillColor=none;align=left;verticalAlign=top;spacingLeft=4;spacingRight=4;overflow=hidden;rotatable=0;points=[[0,0.5],[1,0.5]];portConstraint=eastwest;" vertex="1" parent="392">
                    <mxGeometry y="68" width="310" height="42" as="geometry"/>
                </mxCell>
                <mxCell id="396" value="PlaceBoatsInfoHandler" style="swimlane;fontStyle=1;align=center;verticalAlign=top;childLayout=stackLayout;horizontal=1;startSize=26;horizontalStack=0;resizeParent=1;resizeParentMax=0;resizeLast=0;collapsible=1;marginBottom=0;" vertex="1" parent="1">
                    <mxGeometry x="-740" y="-1672" width="310" height="110" as="geometry"/>
                </mxCell>
                <mxCell id="397" value="- userContainer: Singleton&lt;UserContainer&gt;.Instance&#10;- gameContainer: Singleton&lt;GameContainer&gt;.Instance" style="text;strokeColor=none;fillColor=none;align=left;verticalAlign=top;spacingLeft=4;spacingRight=4;overflow=hidden;rotatable=0;points=[[0,0.5],[1,0.5]];portConstraint=eastwest;" vertex="1" parent="396">
                    <mxGeometry y="26" width="310" height="34" as="geometry"/>
                </mxCell>
                <mxCell id="398" value="" style="line;strokeWidth=1;fillColor=none;align=left;verticalAlign=middle;spacingTop=-1;spacingLeft=3;spacingRight=3;rotatable=0;labelPosition=right;points=[];portConstraint=eastwest;" vertex="1" parent="396">
                    <mxGeometry y="60" width="310" height="8" as="geometry"/>
                </mxCell>
                <mxCell id="399" value="+InternalHandle(Message): IHandler&#10;+CanHandle(Message): string" style="text;strokeColor=none;fillColor=none;align=left;verticalAlign=top;spacingLeft=4;spacingRight=4;overflow=hidden;rotatable=0;points=[[0,0.5],[1,0.5]];portConstraint=eastwest;" vertex="1" parent="396">
                    <mxGeometry y="68" width="310" height="42" as="geometry"/>
                </mxCell>
                <mxCell id="400" value="PlaceBoatsListHandler" style="swimlane;fontStyle=1;align=center;verticalAlign=top;childLayout=stackLayout;horizontal=1;startSize=26;horizontalStack=0;resizeParent=1;resizeParentMax=0;resizeLast=0;collapsible=1;marginBottom=0;" vertex="1" parent="1">
                    <mxGeometry x="-740" y="-1440" width="310" height="120" as="geometry"/>
                </mxCell>
                <mxCell id="401" value="- userContainer: Singleton&lt;UserContainer&gt;.Instance&#10;- gameContainer: Singleton&lt;GameContainer&gt;.Instance&#10;- Alphabet: string[]" style="text;strokeColor=none;fillColor=none;align=left;verticalAlign=top;spacingLeft=4;spacingRight=4;overflow=hidden;rotatable=0;points=[[0,0.5],[1,0.5]];portConstraint=eastwest;" vertex="1" parent="400">
                    <mxGeometry y="26" width="310" height="44" as="geometry"/>
                </mxCell>
                <mxCell id="402" value="" style="line;strokeWidth=1;fillColor=none;align=left;verticalAlign=middle;spacingTop=-1;spacingLeft=3;spacingRight=3;rotatable=0;labelPosition=right;points=[];portConstraint=eastwest;" vertex="1" parent="400">
                    <mxGeometry y="70" width="310" height="8" as="geometry"/>
                </mxCell>
                <mxCell id="403" value="+InternalHandle(Message): IHandler&#10;+CanHandle(Message): string" style="text;strokeColor=none;fillColor=none;align=left;verticalAlign=top;spacingLeft=4;spacingRight=4;overflow=hidden;rotatable=0;points=[[0,0.5],[1,0.5]];portConstraint=eastwest;" vertex="1" parent="400">
                    <mxGeometry y="78" width="310" height="42" as="geometry"/>
                </mxCell>
                <mxCell id="404" value="Hereda" style="endArrow=block;endSize=16;endFill=0;html=1;exitX=0.52;exitY=1.175;exitDx=0;exitDy=0;entryX=0.25;entryY=0;entryDx=0;entryDy=0;exitPerimeter=0;" edge="1" parent="1" source="391" target="46">
                    <mxGeometry width="160" relative="1" as="geometry">
                        <mxPoint x="757.8899999999999" y="-1549.858" as="sourcePoint"/>
                        <mxPoint x="536.3299999999999" y="-1245.9599999999998" as="targetPoint"/>
                    </mxGeometry>
                </mxCell>
                <mxCell id="405" value="Hereda" style="endArrow=block;endSize=16;endFill=0;html=1;entryX=0.107;entryY=-0.02;entryDx=0;entryDy=0;entryPerimeter=0;" edge="1" parent="1" target="46">
                    <mxGeometry width="160" relative="1" as="geometry">
                        <mxPoint x="-150" y="-1550" as="sourcePoint"/>
                        <mxPoint x="366.5" y="-1248" as="targetPoint"/>
                    </mxGeometry>
                </mxCell>
                <mxCell id="406" value="Hereda" style="endArrow=block;endSize=16;endFill=0;html=1;entryX=0;entryY=0;entryDx=0;entryDy=0;exitX=0.757;exitY=1.175;exitDx=0;exitDy=0;exitPerimeter=0;" edge="1" parent="1" source="399" target="46">
                    <mxGeometry width="160" relative="1" as="geometry">
                        <mxPoint x="-140" y="-1540" as="sourcePoint"/>
                        <mxPoint x="327.8899999999999" y="-1251.3999999999999" as="targetPoint"/>
                    </mxGeometry>
                </mxCell>
                <mxCell id="407" value="Hereda" style="endArrow=block;endSize=16;endFill=0;html=1;entryX=-0.004;entryY=0.069;entryDx=0;entryDy=0;exitX=1;exitY=0.5;exitDx=0;exitDy=0;entryPerimeter=0;" edge="1" parent="1" source="401" target="47">
                    <mxGeometry width="160" relative="1" as="geometry">
                        <mxPoint x="-495.3299999999999" y="-1544.6499999999999" as="sourcePoint"/>
                        <mxPoint x="299" y="-1248" as="targetPoint"/>
                    </mxGeometry>
                </mxCell>
                <mxCell id="408" value="Use" style="endArrow=open;endSize=12;dashed=1;html=1;exitX=0.5;exitY=0;exitDx=0;exitDy=0;entryX=0.009;entryY=0.008;entryDx=0;entryDy=0;entryPerimeter=0;" edge="1" parent="1" source="388" target="41">
                    <mxGeometry width="160" relative="1" as="geometry">
                        <mxPoint x="360" y="-1740" as="sourcePoint"/>
                        <mxPoint x="520" y="-1740" as="targetPoint"/>
                        <Array as="points">
                            <mxPoint x="115" y="-1810"/>
                            <mxPoint x="-860" y="-1810"/>
                            <mxPoint x="-860" y="-510"/>
                            <mxPoint x="-20" y="-510"/>
                        </Array>
                    </mxGeometry>
                </mxCell>
                <mxCell id="409" value="Use" style="endArrow=open;endSize=12;dashed=1;html=1;exitX=0.377;exitY=-0.006;exitDx=0;exitDy=0;exitPerimeter=0;entryX=0;entryY=0;entryDx=0;entryDy=0;" edge="1" parent="1" source="388" target="50">
                    <mxGeometry width="160" relative="1" as="geometry">
                        <mxPoint x="-220" y="-1740" as="sourcePoint"/>
                        <mxPoint x="-60" y="-1740" as="targetPoint"/>
                        <Array as="points">
                            <mxPoint x="77" y="-1790"/>
                            <mxPoint x="-850" y="-1790"/>
                            <mxPoint x="-850" y="-560"/>
                            <mxPoint x="70" y="-560"/>
                            <mxPoint x="480" y="-560"/>
                        </Array>
                    </mxGeometry>
                </mxCell>
                <mxCell id="410" value="Use" style="endArrow=open;endSize=12;dashed=1;html=1;exitX=0.25;exitY=0;exitDx=0;exitDy=0;entryX=0.75;entryY=1;entryDx=0;entryDy=0;" edge="1" parent="1" source="388" target="384">
                    <mxGeometry width="160" relative="1" as="geometry">
                        <mxPoint x="-360" y="-1730" as="sourcePoint"/>
                        <mxPoint x="-200" y="-1730" as="targetPoint"/>
                        <Array as="points">
                            <mxPoint x="38" y="-1940"/>
                            <mxPoint x="-467" y="-1940"/>
                        </Array>
                    </mxGeometry>
                </mxCell>
                <mxCell id="411" value="Use" style="endArrow=open;endSize=12;dashed=1;html=1;exitX=0;exitY=0;exitDx=0;exitDy=0;entryX=0.5;entryY=1;entryDx=0;entryDy=0;" edge="1" parent="1" source="388" target="381">
                    <mxGeometry width="160" relative="1" as="geometry">
                        <mxPoint x="-420" y="-1710" as="sourcePoint"/>
                        <mxPoint x="-260" y="-1710" as="targetPoint"/>
                        <Array as="points">
                            <mxPoint x="-40" y="-1880"/>
                            <mxPoint x="-855" y="-1880"/>
                        </Array>
                    </mxGeometry>
                </mxCell>
                <mxCell id="412" value="Use" style="endArrow=open;endSize=12;dashed=1;html=1;exitX=0.75;exitY=0;exitDx=0;exitDy=0;entryX=1;entryY=0;entryDx=0;entryDy=0;" edge="1" parent="1" source="384" target="14">
                    <mxGeometry width="160" relative="1" as="geometry">
                        <mxPoint x="-450" y="-2150" as="sourcePoint"/>
                        <mxPoint x="-290" y="-2150" as="targetPoint"/>
                        <Array as="points">
                            <mxPoint x="-467" y="-2240"/>
                            <mxPoint x="1580" y="-2230"/>
                        </Array>
                    </mxGeometry>
                </mxCell>
                <mxCell id="413" value="Use" style="endArrow=open;endSize=12;dashed=1;html=1;exitX=0.25;exitY=0;exitDx=0;exitDy=0;entryX=0.846;entryY=-0.033;entryDx=0;entryDy=0;entryPerimeter=0;" edge="1" parent="1" source="368" target="14">
                    <mxGeometry width="160" relative="1" as="geometry">
                        <mxPoint x="-200" y="-2060" as="sourcePoint"/>
                        <mxPoint x="-40" y="-2060" as="targetPoint"/>
                        <Array as="points">
                            <mxPoint x="-310" y="-2220"/>
                            <mxPoint x="1560" y="-2220"/>
                        </Array>
                    </mxGeometry>
                </mxCell>
                <mxCell id="414" value="Use" style="endArrow=open;endSize=12;dashed=1;html=1;exitX=0.25;exitY=0;exitDx=0;exitDy=0;entryX=0.25;entryY=0;entryDx=0;entryDy=0;" edge="1" parent="1" source="381" target="10">
                    <mxGeometry width="160" relative="1" as="geometry">
                        <mxPoint x="-980" y="-1950" as="sourcePoint"/>
                        <mxPoint x="-820" y="-1950" as="targetPoint"/>
                        <Array as="points">
                            <mxPoint x="-922" y="-2290"/>
                            <mxPoint x="2026" y="-2280"/>
                        </Array>
                    </mxGeometry>
                </mxCell>
                <mxCell id="415" value="Use" style="endArrow=open;endSize=12;dashed=1;html=1;exitX=0.75;exitY=0;exitDx=0;exitDy=0;entryX=0.5;entryY=0;entryDx=0;entryDy=0;" edge="1" parent="1" source="372" target="10">
                    <mxGeometry width="160" relative="1" as="geometry">
                        <mxPoint x="130" y="-2150" as="sourcePoint"/>
                        <mxPoint x="290" y="-2150" as="targetPoint"/>
                        <Array as="points">
                            <mxPoint x="178" y="-2260"/>
                            <mxPoint x="2070" y="-2250"/>
                        </Array>
                    </mxGeometry>
                </mxCell>
                <mxCell id="416" value="1" style="endArrow=open;html=1;endSize=12;startArrow=diamondThin;startSize=14;startFill=0;edgeStyle=orthogonalEdgeStyle;align=left;verticalAlign=bottom;exitX=0.515;exitY=0.779;exitDx=0;exitDy=0;exitPerimeter=0;entryX=0.5;entryY=1;entryDx=0;entryDy=0;entryPerimeter=0;" edge="1" parent="1" source="385" target="370">
                    <mxGeometry x="-0.8238" y="11" relative="1" as="geometry">
                        <mxPoint x="-630" y="-1950" as="sourcePoint"/>
                        <mxPoint x="-470" y="-1950" as="targetPoint"/>
                        <Array as="points">
                            <mxPoint x="-531" y="-1910"/>
                            <mxPoint x="-270" y="-1910"/>
                        </Array>
                        <mxPoint y="-1" as="offset"/>
                    </mxGeometry>
                </mxCell>
                <mxCell id="417" value="1" style="endArrow=open;html=1;endSize=12;startArrow=diamondThin;startSize=14;startFill=0;edgeStyle=orthogonalEdgeStyle;align=left;verticalAlign=bottom;exitX=0.515;exitY=0.779;exitDx=0;exitDy=0;exitPerimeter=0;entryX=0.5;entryY=1;entryDx=0;entryDy=0;" edge="1" parent="1" target="372">
                    <mxGeometry x="-0.9521" y="10" relative="1" as="geometry">
                        <mxPoint x="-789.9999999999998" y="-1995.998" as="sourcePoint"/>
                        <mxPoint x="-529.05" y="-1988.23" as="targetPoint"/>
                        <Array as="points">
                            <mxPoint x="-790" y="-1900"/>
                            <mxPoint x="110" y="-1900"/>
                        </Array>
                        <mxPoint as="offset"/>
                    </mxGeometry>
                </mxCell>
                <mxCell id="418" value="Use" style="endArrow=open;endSize=12;dashed=1;html=1;exitX=0.5;exitY=0;exitDx=0;exitDy=0;entryX=-0.012;entryY=0.187;entryDx=0;entryDy=0;entryPerimeter=0;" edge="1" parent="1" source="392" target="41">
                    <mxGeometry width="160" relative="1" as="geometry">
                        <mxPoint x="-330" y="-1740" as="sourcePoint"/>
                        <mxPoint x="-170" y="-1740" as="targetPoint"/>
                        <Array as="points">
                            <mxPoint x="-235" y="-1760"/>
                            <mxPoint x="-830" y="-1760"/>
                            <mxPoint x="-830" y="-480"/>
                            <mxPoint x="-30" y="-480"/>
                        </Array>
                    </mxGeometry>
                </mxCell>
                <mxCell id="419" value="Use" style="endArrow=open;endSize=12;dashed=1;html=1;exitX=0.432;exitY=-0.004;exitDx=0;exitDy=0;exitPerimeter=0;entryX=0;entryY=0.5;entryDx=0;entryDy=0;" edge="1" parent="1" source="392" target="51">
                    <mxGeometry width="160" relative="1" as="geometry">
                        <mxPoint x="-680" y="-1730" as="sourcePoint"/>
                        <mxPoint x="-520" y="-1730" as="targetPoint"/>
                        <Array as="points">
                            <mxPoint x="-256" y="-1730"/>
                            <mxPoint x="-920" y="-1730"/>
                            <mxPoint x="-910" y="-580"/>
                            <mxPoint x="440" y="-580"/>
                            <mxPoint x="440" y="-311"/>
                        </Array>
                    </mxGeometry>
                </mxCell>
                <mxCell id="420" value="Implements" style="endArrow=block;dashed=1;endFill=0;endSize=12;html=1;exitX=0.357;exitY=1.022;exitDx=0;exitDy=0;exitPerimeter=0;entryX=0.5;entryY=0;entryDx=0;entryDy=0;" edge="1" parent="1" source="210" target="322">
                    <mxGeometry width="160" relative="1" as="geometry">
                        <mxPoint x="-250" y="-120" as="sourcePoint"/>
                        <mxPoint x="-90" y="-120" as="targetPoint"/>
                    </mxGeometry>
                </mxCell>
                <mxCell id="421" value="Implements" style="endArrow=block;dashed=1;endFill=0;endSize=12;html=1;exitX=0;exitY=0.5;exitDx=0;exitDy=0;entryX=1;entryY=0.5;entryDx=0;entryDy=0;" edge="1" parent="1" source="210" target="318">
                    <mxGeometry width="160" relative="1" as="geometry">
                        <mxPoint x="-420" y="-90" as="sourcePoint"/>
                        <mxPoint x="-260" y="-90" as="targetPoint"/>
                    </mxGeometry>
                </mxCell>
                <mxCell id="422" value="Use" style="endArrow=open;endSize=12;dashed=1;html=1;exitX=0.5;exitY=0;exitDx=0;exitDy=0;entryX=0.11;entryY=-0.032;entryDx=0;entryDy=0;entryPerimeter=0;" edge="1" parent="1" source="396" target="38">
                    <mxGeometry width="160" relative="1" as="geometry">
                        <mxPoint x="-730" y="-1480" as="sourcePoint"/>
                        <mxPoint x="-570" y="-1480" as="targetPoint"/>
                        <Array as="points">
                            <mxPoint x="-585" y="-1710"/>
                            <mxPoint x="-940" y="-1710"/>
                            <mxPoint x="-940" y="-540"/>
                            <mxPoint x="-140" y="-540"/>
                        </Array>
                    </mxGeometry>
                </mxCell>
                <mxCell id="423" value="Use" style="endArrow=open;endSize=12;dashed=1;html=1;exitX=0.401;exitY=-0.038;exitDx=0;exitDy=0;exitPerimeter=0;entryX=0.349;entryY=-0.021;entryDx=0;entryDy=0;entryPerimeter=0;" edge="1" parent="1" source="396" target="50">
                    <mxGeometry width="160" relative="1" as="geometry">
                        <mxPoint x="-990" y="-1490" as="sourcePoint"/>
                        <mxPoint x="-830" y="-1490" as="targetPoint"/>
                        <Array as="points">
                            <mxPoint x="-610" y="-1700"/>
                            <mxPoint x="-980" y="-1700"/>
                            <mxPoint x="-970" y="-560"/>
                            <mxPoint x="600" y="-600"/>
                        </Array>
                    </mxGeometry>
                </mxCell>
                <mxCell id="424" value="Use" style="endArrow=open;endSize=12;dashed=1;html=1;exitX=0;exitY=0.5;exitDx=0;exitDy=0;entryX=-0.001;entryY=0.167;entryDx=0;entryDy=0;entryPerimeter=0;" edge="1" parent="1" source="401" target="38">
                    <mxGeometry width="160" relative="1" as="geometry">
                        <mxPoint x="-1170" y="-1490" as="sourcePoint"/>
                        <mxPoint x="-1010" y="-1490" as="targetPoint"/>
                        <Array as="points">
                            <mxPoint x="-1000" y="-1392"/>
                            <mxPoint x="-1000" y="-620"/>
                            <mxPoint x="-230" y="-620"/>
                        </Array>
                    </mxGeometry>
                </mxCell>
                <mxCell id="425" value="Use" style="endArrow=open;endSize=12;dashed=1;html=1;exitX=0;exitY=0.5;exitDx=0;exitDy=0;" edge="1" parent="1" source="403">
                    <mxGeometry width="160" relative="1" as="geometry">
                        <mxPoint x="-850" y="-1230" as="sourcePoint"/>
                        <mxPoint x="500" y="-340" as="targetPoint"/>
                        <Array as="points">
                            <mxPoint x="-1050" y="-1341"/>
                            <mxPoint x="-1050" y="-550"/>
                            <mxPoint x="330" y="-560"/>
                        </Array>
                    </mxGeometry>
                </mxCell>
                <mxCell id="430" value="Use" style="endArrow=open;endSize=12;dashed=1;html=1;exitX=0.632;exitY=1.201;exitDx=0;exitDy=0;exitPerimeter=0;entryX=0.25;entryY=0;entryDx=0;entryDy=0;" edge="1" parent="1" source="57" target="218">
                    <mxGeometry width="160" relative="1" as="geometry">
                        <mxPoint x="630" y="-840" as="sourcePoint"/>
                        <mxPoint x="770" y="-770" as="targetPoint"/>
                        <Array as="points">
                            <mxPoint x="626" y="-690"/>
                            <mxPoint x="980" y="-680"/>
                        </Array>
                    </mxGeometry>
                </mxCell>
                <mxCell id="431" value="Use" style="endArrow=open;endSize=12;dashed=1;html=1;exitX=0.567;exitY=1.028;exitDx=0;exitDy=0;exitPerimeter=0;" edge="1" parent="1" source="57">
                    <mxGeometry width="160" relative="1" as="geometry">
                        <mxPoint x="440" y="-760" as="sourcePoint"/>
                        <mxPoint x="606" y="-350" as="targetPoint"/>
                    </mxGeometry>
                </mxCell>
            </root>
        </mxGraphModel>
    </diagram>
</mxfile>